<svg
  width="33"
  height="34"
  viewBox="0 0 33 34"
  fill="none"
  xmlns="http://www.w3.org/2000/svg"
  class="flex-grow-0 flex-shrink-0 w-[33px] h-[33px]"
  preserveAspectRatio="none"
>
  <circle cx="16.5" cy="17" r="16.5" fill="#B0B0B0"></circle>
  <path
    d="M4.70996 19.5207C5.21424 19.5207 5.71273 19.4865 6.2137 19.4865C6.44154 19.4865 6.66938 19.4865 6.89722 19.4865C7.06841 19.4865 7.28928 19.446 7.45163 19.4941C7.76208 19.5861 8.04171 19.687 8.33261 19.8283C8.5771 19.947 8.7451 20.1883 8.98195 20.3067"
    stroke="#3B3029"
    stroke-linecap="round"
  ></path>
  <path
    d="M4.19901 14.1122C4.20993 14.0248 4.44613 14.1845 4.31957 14.1845C4.19372 14.1845 4.12776 14.044 4.18025 13.9193C4.22249 13.819 4.35722 13.8277 4.44013 13.8764C4.49965 13.9114 4.51893 14.1331 4.46424 14.1604"
    stroke="#3B3029"
    stroke-linecap="round"
  ></path>
  <path
    d="M10.9265 14.0399C11.037 14.0399 11.1078 14.034 11.2024 14.0881C11.266 14.1244 11.2547 14.2819 11.1783 14.3038C11.0795 14.332 10.9606 14.3604 10.8836 14.2756C10.7987 14.1822 10.8685 14.064 10.9747 14.064"
    stroke="#3B3029"
    stroke-linecap="round"
  ></path>
</svg>