<svg width="86" height="58" viewBox="0 0 86 58" fill="none" xmlns="http://www.w3.org/2000/svg">
<path d="M31.1474 50.7959C31.1474 52.9487 29.4022 54.6939 27.2494 54.6939C25.0966 54.6939 23.3515 52.9487 23.3515 50.7959C23.3515 48.6432 25.0966 46.898 27.2494 46.898C29.4022 46.898 31.1474 48.6432 31.1474 50.7959Z" fill="#3B3029"/>
<path d="M29.1984 43L30.1729 43L30.1729 49.8214L29.1984 49.8214L29.1984 43Z" fill="#3B3029"/>
<path d="M29.1984 43.9745L29.1984 43L32.1219 43L32.1219 43.9745L29.1984 43.9745Z" fill="#3B3029"/>
<path d="M29.1984 45.9235L29.1984 44.949L32.1219 44.949L32.1219 45.9235L29.1984 45.9235Z" fill="#3B3029"/>
<path d="M42.8413 50.7959C42.8413 52.9487 41.0961 54.6939 38.9433 54.6939C36.7905 54.6939 35.0453 52.9487 35.0453 50.7959C35.0453 48.6432 36.7905 46.898 38.9433 46.898C41.0961 46.898 42.8413 48.6432 42.8413 50.7959Z" fill="#3B3029"/>
<path d="M40.8923 43L41.8668 43L41.8668 49.8214L40.8923 49.8214L40.8923 43Z" fill="#3B3029"/>
<path d="M40.8923 43.9745L40.8923 43L43.8158 43L43.8158 43.9745L40.8923 43.9745Z" fill="#3B3029"/>
<path d="M40.8923 45.9235L40.8923 44.949L43.8158 44.949L43.8158 45.9235L40.8923 45.9235Z" fill="#3B3029"/>
<path d="M44.0771 3.2551C45.5525 1.61082 48.0814 1.47386 49.7257 2.9492C51.37 4.42454 51.5069 6.9535 50.0316 8.59778L8.62583 54.745C7.15049 56.3892 4.62153 56.5262 2.97725 55.0508C1.33297 53.5755 1.19601 51.0465 2.67135 49.4023L44.0771 3.2551Z" fill="#B46A55"/>
<path d="M41.6258 3.2551C40.1505 1.61082 37.6215 1.47386 35.9773 2.9492C34.333 4.42454 34.196 6.9535 35.6714 8.59778L77.0771 54.745C78.5525 56.3892 81.0814 56.5262 82.7257 55.0508C84.37 53.5755 84.507 51.0465 83.0316 49.4023L41.6258 3.2551Z" fill="#B46A55"/>
</svg>
