<svg
  width="33"
  height="34"
  viewBox="0 0 33 34"
  fill="none"
  xmlns="http://www.w3.org/2000/svg"
  class="flex-grow-0 flex-shrink-0 w-[33px] h-[33px]"
  preserveAspectRatio="none"
>
  <circle cx="16.5" cy="17" r="16.5" fill="#556B2F"></circle>
  <path
    d="M3.61081 13.236C3.14492 12.8284 4.32213 14.2507 4.71251 14.7312"
    stroke="#3B3029"
    stroke-linecap="round"
  ></path>
  <path
    d="M10.8506 14.9673C11.6257 14.9673 12.3996 14.4778 13.0846 14.1847C13.5924 13.9674 14.3438 13.4721 14.9426 13.4721"
    stroke="#3B3029"
    stroke-linecap="round"
  ></path>
  <path
    d="M3.23633 20.2532C3.59257 20.2532 3.95609 20.1951 4.30972 20.2075C4.71829 20.2218 5.13979 20.3186 5.54779 20.363C6.33292 20.4485 7.11932 20.4162 7.90194 20.485C8.79426 20.5634 9.69896 20.7304 10.5915 20.7472C10.8926 20.7529 11.1664 20.857 11.4698 20.857C11.7036 20.857 11.9373 20.857 12.1711 20.857C12.4862 20.857 12.8013 20.857 13.1165 20.857"
    stroke="#3B3029"
    stroke-linecap="round"
  ></path>
  <path
    d="M7.62745 20.857C7.62745 20.857 7.62745 22.7232 7.62745 23.6564C7.62745 24.1012 7.59415 24.5498 7.9141 24.9066C8.08728 25.0998 8.53125 25.5748 8.83502 25.3031C9.06068 25.1011 9.19364 24.7145 9.2223 24.4279C9.24483 24.2026 9.32903 23.9971 9.32903 23.7661C9.32903 23.5372 9.28749 23.2703 9.35648 23.0495C9.40522 22.8936 9.38392 22.7174 9.38392 22.5555C9.38392 22.2877 9.44295 22.0489 9.5059 21.7901C9.55339 21.5949 9.56131 21.0702 9.76815 20.9668"
    stroke="#3B3029"
    stroke-linecap="round"
  ></path>
  <path
    d="M22.756 6.41589C22.5034 6.85794 22.0912 7.15612 21.8245 7.57839C21.5321 8.0414 21.1324 8.45549 20.811 8.89738"
    stroke="#3B3029"
    stroke-linecap="round"
  ></path>
  <path
    d="M20.5425 6.75122C21.495 7.07198 22.3658 7.52874 23.2252 7.95843"
    stroke="#3B3029"
    stroke-linecap="round"
  ></path>
</svg>