<svg width="580" height="470" viewBox="0 0 580 470" fill="none" xmlns="http://www.w3.org/2000/svg">
<circle cx="251.5" cy="213.5" r="212.5" fill="url(#paint0_radial_7_3)"/>
<path d="M351.311 108.696C351.311 168.727 302.647 217.391 242.616 217.391C182.585 217.391 133.92 168.727 133.92 108.696C133.92 48.6647 182.585 0 242.616 0C302.647 0 351.311 48.6647 351.311 108.696Z" fill="#FFD700"/>
<path d="M213.316 121.497C214.108 121.401 214.882 121.612 215.522 122.037C215.818 122.077 216.136 122.117 216.5 122.166C216.956 122.227 217.572 122.318 218.064 122.436L219.62 122.783C220.363 122.956 221.256 123.179 222.071 123.433C222.906 123.694 223.885 124.053 224.741 124.54C225.31 124.863 226.568 125.644 227.154 127.094L227.36 127.756L227.482 128.464C227.639 129.876 227.34 131.277 226.761 132.453L226.446 133.019C225.914 133.889 225.164 134.461 224.671 134.788C224.53 134.881 224.377 134.954 224.233 135.039C224.342 135.166 224.449 135.299 224.548 135.444L224.806 135.869L225.018 136.325C225.438 137.407 225.389 138.501 225.372 138.924C225.358 139.263 225.331 139.603 225.314 139.825C225.293 140.095 225.288 140.201 225.288 140.243C225.287 143.761 222.341 145.192 221.28 145.686C220.432 146.08 220.242 146.119 219.833 146.335C218.899 147.599 217.175 148.053 215.722 147.326C214.096 146.512 213.435 144.533 214.249 142.907L214.525 142.43C215.216 141.383 216.193 140.813 216.732 140.526C217.287 140.231 218.257 139.823 218.501 139.709C218.591 139.667 218.662 139.62 218.726 139.587C218.733 139.486 218.74 139.394 218.746 139.317C218.75 139.265 218.748 139.215 218.752 139.169C218.597 139.108 218.42 139.045 218.224 138.982C217.759 138.832 217.269 138.711 216.841 138.628C216.629 138.588 216.449 138.555 216.307 138.538C216.188 138.524 216.123 138.52 216.108 138.519C215.922 138.519 215.645 138.515 215.342 138.468C215.227 138.449 214.312 138.331 213.515 137.606C212.995 137.131 212.494 136.353 212.435 135.328C212.381 134.398 212.723 133.705 212.949 133.347C213.351 132.711 213.873 132.364 213.991 132.285C214.573 131.895 215.401 131.595 215.78 131.455C216.313 131.26 216.907 131.057 217.35 130.909C217.581 130.831 217.766 130.77 217.903 130.722C218.126 130.644 218.023 130.668 217.851 130.754L219.106 130.201C219.487 130.042 219.836 129.889 220.167 129.738C220.149 129.732 220.128 129.724 220.109 129.718C219.425 129.505 218.753 129.344 218.141 129.204L216.52 128.837C216.413 128.811 216.134 128.764 215.625 128.696C215.203 128.639 214.602 128.567 214.126 128.496C213.787 128.445 212.982 128.331 212.351 128.072C212.185 128.003 211.726 127.802 211.277 127.39C210.788 126.941 209.827 125.718 210.305 124.012C210.665 122.728 211.633 122.141 211.836 122.018C212.175 121.813 212.491 121.697 212.666 121.638L213.316 121.497Z" fill="#3B3029"/>
<path d="M189.823 103.113C190.838 103.115 191.782 103.274 192.467 103.389C193.016 103.482 193.442 103.557 193.799 103.608L194.713 103.685L195.382 103.75C196.881 104.058 198.006 105.388 198.006 106.979C198.006 108.57 196.881 109.901 195.382 110.209L194.713 110.273L193.78 110.234C192.85 110.156 191.966 109.982 191.367 109.881C190.879 109.798 190.51 109.746 190.222 109.72L189.56 109.713C188.561 109.831 187.553 110.028 186.375 110.247C185.81 110.352 185.205 110.458 184.58 110.556L182.657 110.8C180.27 111.008 178.096 111.336 175.831 111.811L173.528 112.332C173.608 112.312 173.617 112.304 173.502 112.351C173.379 112.401 173.277 112.446 173.052 112.544C172.87 112.623 172.595 112.745 172.299 112.846C172.085 112.92 171.741 113 171.334 113.059C171.42 113.035 171.421 113.024 171.321 113.071C171.188 113.135 170.963 113.261 170.659 113.47C170.053 113.887 169.335 114.479 168.639 115.117C167.945 115.754 167.352 116.369 166.992 116.783C166.985 116.792 166.973 116.795 166.966 116.803C166.483 117.947 165.399 118.742 164.148 118.816L163.479 118.784L162.785 118.604C162.064 118.334 161.319 117.781 160.9 116.828C160.471 115.853 160.642 114.991 160.707 114.712C160.849 114.092 161.14 113.628 161.215 113.509C161.453 113.131 161.762 112.756 162.019 112.46C162.577 111.818 163.355 111.03 164.187 110.267C165.017 109.505 165.987 108.691 166.934 108.041C167.406 107.717 167.931 107.393 168.472 107.134C168.892 106.932 169.505 106.681 170.221 106.58C170.262 106.564 170.328 106.544 170.421 106.503C170.544 106.45 170.794 106.341 171.013 106.252C171.239 106.16 171.584 106.025 171.971 105.931L174.493 105.358C176.985 104.837 179.415 104.471 182.084 104.239L183.557 104.052C184.067 103.972 184.602 103.875 185.172 103.769C186.261 103.566 187.52 103.32 188.788 103.171L189.823 103.113ZM166.464 113.419C166.412 113.354 166.353 113.297 166.297 113.239C166.355 113.298 166.412 113.356 166.464 113.419ZM166.033 112.988C165.939 112.91 165.842 112.84 165.744 112.775C165.845 112.841 165.941 112.912 166.033 112.988Z" fill="#3B3029"/>
<path d="M240.673 100.331C242.732 100.562 245.157 101.39 247.215 102.403C248.437 103.005 249.664 103.738 250.728 104.577C251.497 105.185 252.296 105.936 252.928 106.835L253.5 107.788L253.732 108.412C254.128 109.891 253.45 111.495 252.027 112.207C250.603 112.919 248.907 112.5 247.961 111.294L247.608 110.734L247.35 110.387C247.199 110.219 246.969 110.001 246.643 109.743C246.027 109.257 245.221 108.758 244.307 108.309C242.866 107.599 241.461 107.149 240.473 106.958L239.637 106.855C238.34 106.82 237.024 106.949 235.635 107.157L231.196 107.942C230.52 108.065 229.798 108.171 229.119 108.27C228.417 108.372 227.743 108.466 227.086 108.579C226.066 108.754 225.242 108.947 224.609 109.164L224.036 109.389C222.391 110.164 220.43 109.458 219.655 107.813C218.881 106.168 219.586 104.207 221.231 103.432L222.409 102.95C223.613 102.531 224.874 102.276 225.973 102.088C226.73 101.958 227.493 101.852 228.173 101.753C228.871 101.652 229.477 101.556 230.019 101.457L234.664 100.64C236.332 100.394 238.086 100.22 239.817 100.267L240.673 100.331Z" fill="#3B3029"/>
<path d="M579.708 192.854C579.708 215.969 560.969 234.708 537.854 234.708C514.739 234.708 496 215.969 496 192.854C496 169.739 514.739 151 537.854 151C560.969 151 579.708 169.739 579.708 192.854Z" fill="#4682B4"/>
<path d="M516.245 182.425C516.832 182.043 517.619 182.209 518.001 182.796C518.383 183.384 518.214 184.169 517.627 184.55C514.105 186.839 510.076 189.044 505.425 189.044C504.724 189.044 504.156 188.476 504.156 187.776C504.157 187.076 504.724 186.507 505.425 186.507C509.285 186.507 512.776 184.679 516.245 182.425Z" fill="#3B3029"/>
<path d="M531.406 182.294C531.983 182.087 532.611 182.323 532.917 182.826L533.029 183.059L533.187 183.485C533.24 183.616 533.293 183.735 533.351 183.844C533.469 184.068 533.544 184.124 533.544 184.124L533.849 184.3C533.995 184.384 534.179 184.493 534.364 184.615C534.544 184.734 534.761 184.888 534.954 185.073C535.083 185.197 535.269 185.398 535.407 185.672L535.526 185.972L535.57 186.032C535.623 186.076 535.726 186.14 535.912 186.208C536.326 186.357 536.777 186.412 537.354 186.517L537.743 186.574C538.652 186.682 539.583 186.6 540.624 186.458C541.761 186.302 543.111 186.056 544.476 186.056C545.176 186.056 545.744 186.624 545.744 187.325C545.744 188.025 545.176 188.593 544.476 188.593C543.338 188.593 542.257 188.793 540.968 188.97C539.885 189.118 538.693 189.242 537.441 189.093L536.901 189.012C536.524 188.943 535.726 188.839 535.048 188.593C534.392 188.355 533.537 187.874 533.163 186.876C533.122 186.842 533.059 186.791 532.967 186.73C532.851 186.654 532.722 186.578 532.585 186.5L532.182 186.262C531.645 185.92 531.314 185.421 531.107 185.028C531.001 184.828 530.911 184.621 530.834 184.429L530.641 183.916L530.579 183.668C530.494 183.084 530.829 182.501 531.406 182.294Z" fill="#3B3029"/>
<path d="M526.729 204.03C526.729 203.856 526.584 203.487 526.016 202.997C525.622 202.658 525.148 202.371 524.735 202.175L524.346 202.009C523.735 201.782 523.149 201.476 522.644 201.211C522.148 200.951 521.722 200.731 521.307 200.562C521.288 200.564 521.265 200.567 521.237 200.572C521.082 200.599 520.872 200.658 520.62 200.75C520.114 200.936 519.614 201.184 519.283 201.34L519.04 201.424C518.467 201.563 517.857 201.287 517.596 200.733C517.297 200.099 517.569 199.342 518.203 199.043L518.837 198.746C519.109 198.623 519.428 198.487 519.748 198.37C520.069 198.252 520.437 198.136 520.801 198.072C521.085 198.023 521.514 197.975 521.951 198.095L522.136 198.157L522.585 198.345C523.027 198.543 523.449 198.768 523.823 198.964C524.349 199.24 524.794 199.47 525.228 199.63L525.808 199.876C526.414 200.163 527.087 200.572 527.67 201.075C528.406 201.709 529.266 202.723 529.266 204.03C529.265 204.73 528.698 205.298 527.997 205.298C527.297 205.298 526.729 204.73 526.729 204.03Z" fill="#3B3029"/>
<path d="M552.167 197.634C552.157 197.579 552.14 197.509 552.115 197.426C552.063 197.259 551.986 197.069 551.892 196.894C551.795 196.716 551.697 196.582 551.617 196.497C551.587 196.466 551.566 196.449 551.555 196.441C550.67 196.173 549.754 195.566 549.016 194.929C548.944 194.867 548.876 194.799 548.805 194.734C548.805 195.202 548.816 195.678 548.855 196.158C548.957 197.431 549.23 198.342 549.689 198.853L550.197 199.463C550.344 199.642 550.454 199.765 550.556 199.859C550.717 200.006 550.84 200.067 551.069 200.067C551.361 200.067 551.719 200.09 551.902 200.097C552.026 200.101 552.118 200.09 552.184 200.087C552.231 199.819 552.243 199.49 552.229 199.071C552.216 198.705 552.177 198.153 552.177 197.716C552.176 197.716 552.176 197.69 552.167 197.634ZM554.763 198.985C554.775 199.336 554.779 199.737 554.738 200.146L554.681 200.558C554.591 201.053 554.397 201.534 554.029 201.92C553.654 202.313 553.205 202.492 552.813 202.571C552.445 202.646 552.08 202.64 551.812 202.631C551.489 202.619 551.312 202.604 551.069 202.604C550.085 202.603 549.376 202.217 548.845 201.732C548.601 201.509 548.399 201.269 548.238 201.073L547.802 200.55C546.754 199.385 546.437 197.743 546.325 196.361C546.213 194.969 546.296 193.447 546.296 192.514C546.296 191.927 546.697 191.437 547.24 191.293C547.353 191.144 547.497 191.016 547.676 190.926C548.224 190.652 548.877 190.812 549.241 191.276L549.377 191.494L549.578 191.826C549.825 192.183 550.207 192.608 550.673 193.01C551.299 193.549 551.912 193.906 552.31 194.02L552.662 194.157C552.992 194.316 553.256 194.54 553.455 194.749C553.728 195.036 553.951 195.37 554.124 195.69C554.449 196.292 554.713 197.065 554.713 197.716C554.713 198.111 554.744 198.457 554.763 198.985Z" fill="#3B3029"/>
<path d="M103.935 251.749C103.935 280.385 80.7214 303.598 52.0859 303.598C23.4504 303.598 0.236816 280.385 0.236816 251.749C0.236816 223.114 23.4504 199.9 52.0859 199.9C80.7214 199.9 103.935 223.114 103.935 251.749Z" fill="#D32F2F"/>
<path d="M11.9644 236.502C12.5318 235.998 13.3619 235.981 13.9468 236.419L14.1831 236.634L15.1927 237.732C17.2214 239.851 19.3081 241.523 21.8027 242.928L23.0885 243.609L23.3555 243.781C23.9301 244.232 24.1299 245.038 23.7912 245.717C23.4518 246.396 22.6863 246.722 21.9807 246.533L21.683 246.42L20.2499 245.659C17.4644 244.088 15.1434 242.223 12.931 239.914L11.8324 238.72L11.6483 238.463C11.2819 237.83 11.3968 237.006 11.9644 236.502Z" fill="#3B3029"/>
<path d="M56.2096 239.15C56.6608 238.576 57.4699 238.378 58.149 238.718C58.828 239.057 59.1543 239.822 58.9653 240.528L58.8517 240.826C57.3889 243.752 54.5996 245.266 51.806 246.058C49.0058 246.852 45.9561 246.994 43.5849 246.994C42.7171 246.994 42.0137 246.291 42.0137 245.423C42.0138 244.555 42.7172 243.852 43.5849 243.852C45.8762 243.852 48.5738 243.708 50.9467 243.035C53.3262 242.361 55.1376 241.227 56.0408 239.42L56.2096 239.15Z" fill="#3B3029"/>
<path d="M34.0891 257.076C34.7794 256.779 35.9753 256.279 37.1977 256.551L37.7041 256.692C38.8833 257.083 40.0165 257.882 40.9232 258.592C41.4682 259.018 41.997 259.468 42.4667 259.865C42.9505 260.274 43.3614 260.617 43.7126 260.881C44.4062 261.402 44.5461 262.387 44.0256 263.081C43.505 263.775 42.5195 263.915 41.8254 263.394C41.3881 263.066 40.9078 262.662 40.4414 262.268C39.9609 261.862 39.4771 261.452 38.9868 261.068C38.0791 260.357 37.3237 259.88 36.7497 259.684L36.5165 259.617C36.4163 259.594 36.1223 259.622 35.3289 259.963C35.026 260.094 34.5682 260.303 34.1873 260.454C33.8864 260.574 33.5295 260.702 33.144 260.783L32.7512 260.847C30.9765 261.044 29.309 261.427 27.4515 261.795C25.6309 262.156 23.6868 262.486 21.5687 262.486C20.701 262.486 19.9976 261.782 19.9976 260.915C19.9979 260.047 20.7012 259.343 21.5687 259.343C23.3694 259.343 25.0685 259.066 26.8408 258.714C28.5751 258.371 30.4523 257.94 32.4013 257.723L32.6407 257.671C32.7436 257.641 32.8714 257.596 33.0304 257.533C33.3673 257.399 33.6503 257.264 34.0891 257.076Z" fill="#3B3029"/>
<path d="M130.021 157.97C130.021 177.594 114.113 193.502 94.4891 193.502C74.8655 193.502 58.9575 177.594 58.9575 157.97C58.9575 138.347 74.8655 122.439 94.4891 122.439C114.113 122.439 130.021 138.347 130.021 157.97Z" fill="#B0B0B0"/>
<path d="M74.3681 162.218C74.5952 162.208 74.9539 162.203 75.3102 162.308L75.8338 162.472C76.3505 162.643 76.8514 162.84 77.3711 163.093L77.6655 163.257C77.9424 163.433 78.1643 163.633 78.3174 163.768C78.4392 163.875 78.5295 163.951 78.6013 164.008L78.7801 164.127L78.9651 164.245C79.359 164.554 79.4943 165.107 79.2616 165.572C79.0288 166.038 78.5049 166.262 78.0209 166.132L77.819 166.054L77.5309 165.89C77.261 165.714 77.0429 165.515 76.8958 165.385C76.7779 165.281 76.6887 165.206 76.6161 165.15L76.4311 165.03C76.0117 164.826 75.6009 164.663 75.1567 164.517L74.6982 164.374C74.7048 164.375 74.6503 164.361 74.4606 164.369C74.3719 164.373 74.2869 164.381 74.1725 164.388C74.0689 164.395 73.9402 164.401 73.8108 164.401H72.3387C71.821 164.401 71.3012 164.42 70.7594 164.439C70.2233 164.457 69.6645 164.474 69.1002 164.474C68.5055 164.474 68.0234 163.992 68.0234 163.398C68.0238 162.803 68.5057 162.321 69.1002 162.321C69.6217 162.321 70.1439 162.304 70.6858 162.285C71.2214 162.267 71.7781 162.247 72.3387 162.247H73.8108C73.9803 162.247 74.0509 162.231 74.3681 162.218Z" fill="#3B3029"/>
<path d="M68.1141 150.098C68.3795 150.075 68.6357 150.123 68.8565 150.213L69.0647 150.316L69.195 150.405C69.4753 150.625 69.5806 150.915 69.6114 151.002C69.669 151.164 69.6984 151.326 69.7103 151.465C69.7218 151.6 69.7227 151.774 69.6871 151.955C69.6694 152.044 69.6345 152.176 69.561 152.316C69.5077 152.418 69.4102 152.569 69.2434 152.699L69.052 152.819C68.9106 152.89 68.7609 152.923 68.6125 152.928C68.4457 152.978 68.3103 152.985 68.2592 152.985C67.6702 152.985 67.2217 152.635 67.0059 152.209C66.801 151.804 66.795 151.329 66.968 150.918L67.0711 150.72C67.3373 150.295 67.7756 150.127 68.1141 150.098Z" fill="#3B3029"/>
<path d="M82.4876 150.519C82.635 150.519 83.0078 150.489 83.4319 150.672L83.6148 150.765L83.8377 150.929C84.028 151.106 84.1273 151.313 84.1763 151.461C84.2446 151.668 84.2559 151.871 84.2394 152.045C84.2229 152.219 84.1726 152.427 84.0543 152.628C83.9649 152.78 83.8137 152.964 83.5833 153.093L83.3246 153.2C83.2236 153.229 82.9744 153.301 82.6958 153.301C82.4169 153.301 82.0487 153.228 81.7306 152.956L81.5981 152.828C81.2233 152.416 81.126 151.831 81.371 151.328C81.4273 151.213 81.4991 151.108 81.5834 151.015C81.775 150.718 82.1075 150.519 82.4876 150.519Z" fill="#3B3029"/>
<path d="M234.361 300.18C234.361 344.463 198.463 380.361 154.181 380.361C109.898 380.361 74 344.463 74 300.18C74 255.898 109.898 220 154.181 220C198.463 220 234.361 255.898 234.361 300.18Z" fill="#87CEFA"/>
<path d="M107.681 293.188C108.109 293.239 108.491 293.354 108.773 293.458C109.166 293.603 109.618 293.821 110.011 294.113C110.192 294.247 110.511 294.503 110.771 294.896C111.012 295.262 111.52 296.273 110.96 297.44C110.472 298.457 109.539 298.758 109.243 298.84C108.848 298.948 108.464 298.968 108.184 298.968C107.672 298.968 107.119 298.915 106.609 298.754C106.365 298.677 105.99 298.533 105.626 298.247C105.279 297.972 104.63 297.302 104.63 296.22C104.63 295.818 104.722 295.474 104.853 295.186C105.046 294.037 106.036 293.159 107.24 293.159L107.681 293.188ZM107.112 298.014L107.121 298.019H107.24L107.098 298.005C107.104 298.009 107.109 298.012 107.112 298.014Z" fill="#3B3029"/>
<path d="M136.93 291.914C138.458 292.106 139.228 293.233 139.507 294.064C139.757 294.809 139.733 295.545 139.654 296.038C139.615 296.285 139.536 296.63 139.374 296.978C139.304 297.129 139.129 297.473 138.791 297.794C138.442 298.124 137.505 298.764 136.28 298.344C135.306 298.01 134.917 297.225 134.823 297.025C134.684 296.729 134.62 296.454 134.591 296.294C134.544 296.041 134.532 295.776 134.524 295.521C134.274 295.081 134.148 294.562 134.216 294.021C134.383 292.691 135.6 291.748 136.93 291.914ZM136.052 296.679L136.323 296.736C136.22 296.723 136.122 296.69 136.024 296.665C136.034 296.668 136.042 296.676 136.052 296.679Z" fill="#3B3029"/>
<path d="M121.011 305.063C121.761 305.142 122.463 305.414 122.961 305.637C123.493 305.874 123.993 306.151 124.366 306.363C124.481 306.428 124.802 306.611 124.85 306.638C124.992 306.719 125.033 306.741 125.025 306.738L125.633 307.075C125.814 307.189 125.974 307.3 126.107 307.397C126.242 307.495 126.375 307.595 126.478 307.673C126.588 307.757 126.677 307.824 126.758 307.881C126.858 307.953 126.926 307.992 126.966 308.014H140.733L141.222 308.062C142.33 308.288 143.163 309.269 143.163 310.444C143.162 311.618 142.329 312.596 141.222 312.822L140.733 312.874H126.829C125.474 312.873 124.477 312.222 123.934 311.835C123.791 311.732 123.655 311.629 123.545 311.545C123.426 311.455 123.335 311.387 123.246 311.322L122.947 311.127C122.767 311.042 122.572 310.932 122.439 310.857C122.364 310.814 122.284 310.768 122.207 310.724C122.127 310.678 122.047 310.633 121.965 310.586C121.749 310.464 121.527 310.355 121.319 310.249L120.93 311.564C120.56 312.861 119.436 313.345 119.108 313.476C118.627 313.669 118.114 313.769 117.698 313.828C116.837 313.948 115.801 313.975 114.861 313.97C113.898 313.965 112.928 313.926 112.16 313.889C111.782 313.871 111.427 313.85 111.173 313.837C111.042 313.831 110.935 313.826 110.851 313.823C110.808 313.821 110.771 313.819 110.746 313.818H110.713L110.224 313.771C109.116 313.544 108.283 312.563 108.283 311.388C108.284 310.047 109.372 308.959 110.713 308.959L112.393 309.035C113.138 309.07 114.026 309.106 114.884 309.111C115.544 309.114 116.132 309.087 116.597 309.049C116.864 308.185 117.27 307.125 117.978 306.24L118.353 305.846C119.254 305.042 120.364 304.995 121.011 305.063Z" fill="#3B3029"/>
<path d="M284.417 432.208C284.417 452.758 267.758 469.417 247.208 469.417C226.659 469.417 210 452.758 210 432.208C210 411.659 226.659 395 247.208 395C267.758 395 284.417 411.659 284.417 432.208Z" fill="#2F4F4F"/>
<path d="M223.287 436.445C223.922 436.445 224.668 436.529 225.23 437.106C225.615 437.501 225.793 438.028 225.91 438.491C225.932 438.431 225.953 438.368 225.978 438.308C226.045 438.152 226.157 437.918 226.346 437.707L226.599 437.453C226.861 437.221 227.153 437.05 227.485 436.943C227.891 436.811 228.291 436.799 228.606 436.799C228.824 436.799 229.198 436.804 229.572 436.899C229.903 436.982 230.361 437.169 230.691 437.601L230.825 437.801L230.942 438.044C230.973 438.12 230.996 438.192 231.015 438.255C231.048 438.368 231.076 438.489 231.088 438.537C231.092 438.554 231.096 438.568 231.099 438.579C231.23 438.749 231.363 438.938 231.427 439.024C231.486 439.104 231.528 439.149 231.552 439.176C231.582 439.172 231.625 439.162 231.687 439.147C231.713 439.111 231.779 439.028 231.905 438.856C232.024 438.694 232.228 438.429 232.541 438.218C232.882 437.987 233.286 437.863 233.746 437.863L234.052 437.881C234.737 437.963 235.198 438.311 235.499 438.563C235.787 438.806 235.884 438.898 235.968 438.947L236.051 438.984L236.26 439.079C236.714 439.341 236.937 439.895 236.765 440.411C236.592 440.928 236.081 441.236 235.56 441.173L235.338 441.122L235.104 441.032C234.577 440.795 234.195 440.414 234.045 440.288C233.874 440.144 233.817 440.126 233.774 440.123C233.761 440.139 233.743 440.163 233.721 440.193C233.635 440.311 233.299 440.892 232.655 441.195L232.36 441.305C231.972 441.416 231.577 441.468 231.184 441.411C230.772 441.351 230.437 441.184 230.167 440.966C229.919 440.766 229.736 440.53 229.612 440.363L229.28 439.911C229.014 439.579 228.93 439.217 228.894 439.065C228.883 439.064 228.871 439.062 228.859 439.061C228.783 439.055 228.701 439.054 228.606 439.054C228.327 439.054 228.229 439.072 228.181 439.088C228.165 439.093 228.152 439.099 228.137 439.11C228.122 439.119 228.095 439.141 228.057 439.18C228.056 439.182 228.056 439.186 228.055 439.189C228.027 439.255 228.003 439.329 227.954 439.471C227.913 439.588 227.85 439.77 227.764 439.944C227.702 440.071 227.603 440.247 227.447 440.415L227.271 440.581C226.74 441.005 225.992 441.271 225.227 441.03C224.529 440.81 224.085 440.253 223.871 439.605L223.792 439.323C223.729 439.043 223.684 438.869 223.64 438.753C223.635 438.741 223.628 438.731 223.624 438.722C223.564 438.712 223.459 438.7 223.287 438.7C223.07 438.7 222.617 438.735 222.241 438.834C222.139 438.861 222.062 438.887 222.01 438.909C221.817 439.349 221.361 439.634 220.858 439.579C220.24 439.509 219.794 438.953 219.863 438.334L222.105 438.583L220.984 438.458L219.863 438.334C219.934 437.695 220.348 437.293 220.671 437.077C220.994 436.861 221.362 436.734 221.664 436.654C222.277 436.492 222.934 436.445 223.287 436.445Z" fill="#3B3029"/>
<path d="M220.083 422.458C221.747 422.607 222.846 423.836 223.391 425.061L223.488 425.354C223.632 426.022 223.246 426.566 223.074 426.777C222.824 427.083 222.489 427.352 222.219 427.556C221.959 427.753 221.617 427.99 221.433 428.125C221.324 428.205 221.245 428.265 221.193 428.31C221.125 428.368 221.158 428.35 221.211 428.272C220.865 428.79 220.165 428.93 219.647 428.585C219.13 428.239 218.989 427.539 219.334 427.021C219.462 426.829 219.629 426.681 219.731 426.594C219.849 426.494 219.98 426.393 220.103 426.303C220.384 426.098 220.599 425.956 220.858 425.759C220.955 425.686 221.035 425.616 221.103 425.559C220.794 425.077 220.405 424.793 219.977 424.718L219.742 424.698L219.515 424.676C219.001 424.571 218.614 424.116 218.614 423.57C218.614 422.948 219.119 422.443 219.742 422.443L220.083 422.458Z" fill="#3B3029"/>
<path d="M238.883 422.798C239.506 422.798 240.011 423.302 240.011 423.925C240.011 424.548 239.506 425.052 238.883 425.053C238.272 425.053 237.901 425.077 237.558 425.198L237.214 425.354C237.127 425.403 237.044 425.443 236.97 425.482C237.118 425.759 237.397 426.184 237.745 426.61C237.942 426.851 238.143 427.07 238.324 427.242C238.42 427.333 238.498 427.399 238.557 427.444L238.679 427.526L238.87 427.647C239.283 427.97 239.427 428.551 239.183 429.039C238.939 429.525 238.39 429.758 237.884 429.622L237.67 429.541L237.423 429.402C237.183 429.248 236.962 429.058 236.771 428.878C236.504 428.625 236.24 428.33 235.998 428.034C235.648 427.605 235.3 427.117 235.052 426.68L234.84 426.264C234.725 426.004 234.602 425.696 234.56 425.383C234.51 425 234.579 424.573 234.878 424.203C235.106 423.92 235.409 423.757 235.556 423.678C235.791 423.553 235.872 423.521 236.12 423.383L236.487 423.198C237.335 422.822 238.108 422.798 238.883 422.798Z" fill="#3B3029"/>
<path d="M405.026 271.013C405.026 307.471 375.471 337.026 339.013 337.026C302.555 337.026 273 307.471 273 271.013C273 234.555 302.555 205 339.013 205C375.471 205 405.026 234.555 405.026 271.013Z" fill="#FFA500"/>
<path d="M303.426 270.099C304.201 269.882 304.902 270.038 305.301 270.154C305.687 270.266 306.134 270.456 306.301 270.521C306.51 270.602 306.564 270.607 306.532 270.603L306.473 270.599C307.18 270.639 308.105 270.719 308.958 271.189C309.896 271.706 310.466 272.522 310.869 273.428L311.041 273.901C311.181 274.376 311.234 274.853 311.252 275.253C311.276 275.814 311.242 276.394 311.185 276.925C311.129 277.456 311.044 277.979 310.959 278.445L310.716 279.617C310.49 280.609 310.149 281.563 309.861 282.383C309.709 282.813 309.571 283.21 309.45 283.586L309.15 284.676C308.892 285.834 308.248 286.753 307.298 287.333C306.414 287.872 305.428 288.021 304.582 288.021C303.179 288.021 302.039 287.55 301.164 286.692C300.581 286.121 300.177 285.433 299.874 284.817L299.601 284.231C298.513 281.784 298.952 279.31 299.441 277.362C299.566 276.863 299.704 276.368 299.831 275.905C299.962 275.433 300.081 274.992 300.187 274.561C300.4 273.691 300.527 272.964 300.527 272.322C300.527 271.218 301.422 270.322 302.527 270.322C302.623 270.322 302.716 270.34 302.809 270.353C302.997 270.248 303.203 270.162 303.426 270.099ZM304.602 274.147C304.512 274.219 304.42 274.287 304.321 274.342C304.247 274.746 304.167 275.139 304.074 275.514C303.953 276.009 303.816 276.502 303.688 276.968C303.556 277.443 303.432 277.891 303.32 278.335C302.863 280.159 302.754 281.472 303.258 282.606L303.66 283.426C303.774 283.621 303.871 283.748 303.961 283.836C304.029 283.903 304.086 283.934 304.145 283.957C304.208 283.983 304.341 284.02 304.582 284.02C304.99 284.02 305.165 283.942 305.207 283.918C305.216 283.901 305.233 283.868 305.246 283.809L305.43 283.078C305.63 282.36 305.874 281.67 306.09 281.055C306.393 280.194 306.65 279.457 306.817 278.726L307.024 277.722C307.095 277.337 307.164 276.917 307.208 276.503C307.252 276.089 307.268 275.722 307.255 275.428L307.212 275.053C307.112 274.828 307.042 274.726 307.012 274.69C306.993 274.683 306.952 274.671 306.887 274.659L306.251 274.592C305.932 274.575 305.65 274.51 305.434 274.448C305.216 274.385 305.013 274.313 304.856 274.252C304.776 274.221 304.697 274.186 304.629 274.159C304.62 274.155 304.611 274.15 304.602 274.147Z" fill="#3B3029"/>
<path d="M285.526 251.014C286.081 250.222 287.107 249.956 287.96 250.326L288.316 250.525L288.996 251.076C289.265 251.312 289.567 251.589 289.867 251.869C290.513 252.474 291.286 253.228 292.004 253.983C292.707 254.722 293.419 255.523 293.907 256.21C294.132 256.528 294.417 256.967 294.579 257.441C294.656 257.668 294.779 258.109 294.696 258.636C294.593 259.291 294.195 259.918 293.516 260.258C292.613 260.709 291.533 261.654 290.547 262.649L289.601 263.645C289.335 263.937 288.016 265.339 286.757 266.65C286.125 267.307 285.493 267.955 285.01 268.435C284.772 268.672 284.552 268.89 284.377 269.049C284.297 269.122 284.188 269.217 284.077 269.303C284.033 269.336 283.911 269.428 283.748 269.514C283.68 269.55 283.479 269.656 283.201 269.713C283.031 269.748 282.325 269.865 281.658 269.4L281.377 269.166L281.119 268.849C280.608 268.073 280.694 267.02 281.377 266.337C281.48 266.234 281.591 266.144 281.709 266.068C281.817 265.968 281.978 265.813 282.19 265.603C282.64 265.155 283.243 264.531 283.87 263.88C285.126 262.573 286.421 261.198 286.647 260.949L287.652 259.883C288.344 259.181 289.165 258.418 290.031 257.761C289.764 257.451 289.452 257.102 289.105 256.738C288.449 256.048 287.735 255.348 287.136 254.788C286.837 254.508 286.571 254.271 286.362 254.089C286.258 253.998 286.174 253.924 286.108 253.87L286.018 253.8L285.714 253.538C285.073 252.862 284.972 251.806 285.526 251.014ZM284.206 266.337C284.105 266.237 284.001 266.153 283.897 266.083C284.006 266.156 284.109 266.241 284.206 266.337ZM283.858 266.06C283.762 265.999 283.667 265.947 283.573 265.907C283.671 265.949 283.766 266.002 283.858 266.06ZM283.479 265.876C283.4 265.848 283.324 265.823 283.248 265.806C283.327 265.824 283.403 265.848 283.479 265.876ZM283.131 265.779C283.091 265.772 283.052 265.775 283.014 265.771C283.053 265.775 283.093 265.772 283.131 265.779ZM282.51 265.775C282.571 265.766 282.632 265.762 282.694 265.759C282.622 265.762 282.56 265.768 282.51 265.775Z" fill="#3B3029"/>
<path d="M286.429 255.112C287.517 255.13 288.606 255.196 289.574 255.252C290.072 255.281 290.53 255.307 290.95 255.326L292.091 255.358L292.493 255.397C293.405 255.583 294.091 256.391 294.091 257.358C294.091 258.325 293.405 259.133 292.493 259.319L292.091 259.358L290.766 259.323C290.302 259.302 289.819 259.273 289.34 259.245C288.358 259.188 287.351 259.13 286.359 259.112C284.527 259.081 283.075 259.205 282.139 259.538L281.772 259.694C280.784 260.189 279.582 259.788 279.088 258.8C278.594 257.812 278.995 256.61 279.983 256.116L280.709 255.803C282.469 255.157 284.618 255.08 286.429 255.112Z" fill="#3B3029"/>
<path d="M323.051 251.162C323.975 251.049 324.882 251.596 325.188 252.513C325.493 253.43 325.098 254.411 324.293 254.877L323.922 255.045C324.02 255.012 323.985 255.011 323.75 255.151C323.558 255.265 323.308 255.429 323.016 255.631C322.43 256.036 321.735 256.561 321.097 257.104C320.61 257.519 320.207 257.915 319.91 258.237C320.057 258.461 320.195 258.677 320.32 258.874C320.647 259.39 320.914 259.809 321.199 260.167C321.607 260.682 321.918 260.911 322.23 260.992L322.547 261.027L322.953 261.07C323.863 261.257 324.547 262.062 324.547 263.027C324.547 263.993 323.864 264.801 322.953 264.988L322.547 265.028L321.769 264.973C320.03 264.722 318.859 263.655 318.065 262.656C317.626 262.102 317.248 261.501 316.94 261.015C316.774 260.753 316.627 260.524 316.491 260.32L316.1 259.777C315.367 258.86 315.573 257.836 315.745 257.35C315.925 256.842 316.23 256.401 316.487 256.073C317.022 255.39 317.777 254.679 318.503 254.061C319.248 253.426 320.049 252.818 320.738 252.341C321.082 252.103 321.414 251.887 321.707 251.712C321.956 251.564 322.31 251.363 322.656 251.247L323.051 251.162Z" fill="#3B3029"/>
<path d="M329.469 256.581L329.871 256.62C330.783 256.806 331.469 257.615 331.469 258.581C331.469 259.548 330.783 260.356 329.871 260.543L329.469 260.582H319.092C317.987 260.582 317.091 259.686 317.091 258.581C317.091 257.476 317.987 256.581 319.092 256.581H329.469Z" fill="#3B3029"/>
<path d="M468.601 101.748C468.601 121.372 452.693 137.28 433.07 137.28C413.446 137.28 397.538 121.372 397.538 101.748C397.538 82.1249 413.446 66.2169 433.07 66.2169C452.693 66.2169 468.601 82.1249 468.601 101.748Z" fill="#9370DB"/>
<path d="M408.149 89.7499C408.575 89.587 408.96 89.6811 409.249 89.8214C409.434 89.7299 409.655 89.6659 409.917 89.6658L410.084 89.6763C410.457 89.7198 410.74 89.9018 410.91 90.038C411.115 90.2023 411.278 90.3978 411.396 90.5575C411.631 90.8751 411.819 91.2355 411.888 91.3608L412.033 91.6405C412.36 92.3216 412.62 93.1915 412.62 93.9916C412.62 94.7302 412.631 95.5537 412.452 96.4289L412.363 96.8053C412.093 97.8148 411.744 98.7788 411.219 99.72L410.984 100.122C410.685 100.606 410.247 101.442 409.6 102.082L409.31 102.342C409.055 102.548 408.768 102.646 408.559 102.698C408.336 102.753 408.107 102.779 407.903 102.788C407.507 102.807 407.077 102.773 406.753 102.692C406.363 102.594 405.874 102.423 405.472 102.073C405.022 101.682 404.757 101.13 404.757 100.464V98.9125C404.757 98.497 404.81 98.1081 404.856 97.7895C404.904 97.4502 404.944 97.1921 404.955 96.9315L405.001 96.1955C405.066 95.4362 405.193 94.6213 405.415 93.8864L405.68 92.9653C405.799 92.6 405.96 92.203 406.189 91.8508L406.193 91.8424C406.197 91.8362 406.202 91.827 406.208 91.815C406.221 91.7894 406.237 91.7556 406.256 91.7099C406.277 91.66 406.359 91.4585 406.406 91.3524C406.511 91.113 406.744 90.6059 407.259 90.3051L407.457 90.2147C407.496 90.2014 407.537 90.1959 407.577 90.1873C407.704 90.0144 407.886 89.8507 408.149 89.7499Z" fill="#3B3029"/>
<path d="M426.467 89.7451C426.996 89.7513 427.562 89.7895 428.08 89.9155L428.368 89.9975C429.755 90.4522 430.393 91.5767 430.749 92.6451L430.856 93.0341C431.002 93.6984 430.998 94.4299 430.957 95.0383L430.896 95.6965C430.831 96.277 430.667 96.7555 430.494 97.1707C430.411 97.3715 430.319 97.5719 430.24 97.7469L430.015 98.2705C429.724 99.0148 429.208 99.7508 428.734 100.346L428.284 100.889C428.04 101.176 427.685 101.624 427.279 101.961C426.83 102.334 426.239 102.647 425.468 102.647C424.626 102.647 423.934 102.22 423.462 101.728C423.048 101.296 422.734 100.748 422.575 100.178L422.516 99.9318C422.42 99.452 422.419 98.9637 422.432 98.5544C422.446 98.0862 422.474 97.7958 422.474 97.4461C422.474 96.7846 422.524 96.1914 422.629 95.5451L422.667 95.3411C422.67 95.2066 422.672 95.074 422.676 94.9436L422.703 94.4221C422.777 93.4163 422.984 92.4708 423.269 91.5474C423.281 91.3752 423.333 91.2164 423.418 91.0763C423.426 91.0522 423.431 91.0267 423.439 91.0027L423.54 90.7714C423.656 90.5485 423.817 90.356 423.984 90.2078C424.194 90.0212 424.574 89.7641 425.075 89.764L426.467 89.7451Z" fill="#3B3029"/>
<path d="M410.336 93.372C410.573 93.4326 411.312 93.7347 411.312 94.5854C411.312 94.5487 411.308 94.5252 411.314 94.6044C411.318 94.6509 411.325 94.7238 411.329 94.7999C411.332 94.8695 411.334 94.9815 411.324 95.0964C411.32 95.1524 411.31 95.2467 411.28 95.353C411.265 95.4089 411.218 95.5656 411.095 95.7315L410.946 95.8977C410.38 96.4068 409.717 96.1702 409.531 96.0869C409.389 96.0236 409.258 95.9397 409.146 95.843C409.072 95.7796 408.966 95.6781 408.875 95.5339L408.79 95.374C408.709 95.1902 408.684 95.0124 408.675 94.9135C408.663 94.7952 408.663 94.6689 408.675 94.5455C408.686 94.4309 408.713 94.2639 408.786 94.0891C408.843 93.9524 409.033 93.5625 409.51 93.4036L409.722 93.3552C409.737 93.3534 409.752 93.3564 409.766 93.3552C409.987 93.3141 410.188 93.3341 410.336 93.372ZM410.191 95.4455C410.249 95.4263 410.299 95.3994 410.347 95.374C410.297 95.4001 410.246 95.4271 410.191 95.4455ZM410.439 95.3194C410.447 95.3141 410.455 95.31 410.462 95.3046C410.455 95.3099 410.447 95.3143 410.439 95.3194Z" fill="#FAF5F1"/>
<path d="M406.895 99.2075V99.1655C406.895 98.5708 407.377 98.0887 407.971 98.0887C408.566 98.0887 409.048 98.5708 409.048 99.1655V99.2075L409.027 99.4241C408.927 99.9153 408.492 100.284 407.971 100.284C407.451 100.284 407.016 99.9153 406.916 99.4241L406.895 99.2075Z" fill="#FAF5F1"/>
<path d="M425.57 93.5137C425.689 93.5078 425.823 93.5164 425.959 93.5515C426.034 93.571 426.205 93.6226 426.379 93.7555L426.552 93.9174L426.684 94.113C426.717 94.1735 426.74 94.2284 426.756 94.2728C426.788 94.3638 426.803 94.4439 426.81 94.4979C426.825 94.6018 426.822 94.6895 426.821 94.7292C426.819 94.7719 426.818 94.811 426.817 94.8217V94.7649L426.794 95.0404C426.772 95.1543 426.731 95.2864 426.657 95.4211C426.539 95.6339 426.381 95.7738 426.245 95.8648L426.116 95.9405C425.945 96.0314 425.665 96.1433 425.324 96.1066C424.933 96.0645 424.639 95.8483 424.461 95.6019C424.308 95.3886 424.25 95.1705 424.226 95.0425C424.199 94.9032 424.194 94.7751 424.194 94.6808C424.194 94.1328 424.605 93.6864 425.134 93.6188C425.305 93.5441 425.463 93.519 425.57 93.5137ZM426.432 95.2087C426.452 95.178 426.473 95.147 426.491 95.1119C426.474 95.1462 426.452 95.1768 426.432 95.2087ZM426.499 95.0951C426.527 95.0358 426.555 94.9717 426.573 94.8995C426.555 94.9686 426.528 95.033 426.499 95.0951Z" fill="#FAF5F1"/>
<path d="M425.313 97.6616L425.53 97.6827C426.021 97.7826 426.39 98.2176 426.39 98.7383C426.39 99.2591 426.021 99.6941 425.53 99.794L425.313 99.815H425.271C424.676 99.815 424.194 99.333 424.194 98.7383C424.194 98.1437 424.676 97.6616 425.271 97.6616H425.313Z" fill="#FAF5F1"/>
<path d="M416.316 104.829C417.138 104.829 417.769 105.284 418.173 105.666C418.587 106.058 418.928 106.533 419.151 106.841L419.317 107.123C419.453 107.41 419.501 107.705 419.514 107.947C419.533 108.28 419.491 108.613 419.428 108.904C419.336 109.327 419.178 109.767 418.991 110.124L418.793 110.45C418.656 110.647 418.146 111.551 417.06 111.552H416.011C415.249 111.552 414.593 111.302 414.045 110.948L413.815 110.793C413.804 110.784 413.789 110.775 413.719 110.732C413.666 110.7 413.552 110.631 413.441 110.54C413.322 110.443 413.171 110.295 413.054 110.08C412.933 109.856 412.878 109.614 412.877 109.371C412.877 108.749 412.9 108.145 413.052 107.462L413.18 107.022C413.24 106.856 413.315 106.677 413.412 106.505C413.506 106.337 413.697 106.041 414.007 105.815L414.009 105.811L414.253 105.571C414.847 105.055 415.615 104.829 416.316 104.829ZM416.316 106.982C416.122 106.982 415.949 107.031 415.813 107.102C415.748 107.222 415.661 107.328 415.557 107.415C415.547 107.451 415.539 107.489 415.527 107.537C415.514 107.589 415.499 107.655 415.481 107.722C415.463 107.789 415.439 107.866 415.409 107.949L415.298 108.214C415.238 108.334 415.156 108.435 415.062 108.521C415.048 108.681 415.043 108.846 415.039 109.024C415.056 109.035 415.075 109.045 415.092 109.058L415.325 109.209C415.557 109.338 415.782 109.398 416.011 109.398H416.9C416.913 109.381 416.928 109.361 416.945 109.337C416.971 109.3 416.994 109.267 417.027 109.22L417.174 108.927C417.229 108.792 417.285 108.626 417.323 108.45C417.359 108.282 417.37 108.15 417.365 108.065C417.365 108.057 417.362 108.05 417.361 108.044C417.136 107.734 416.923 107.447 416.694 107.23C416.449 106.999 416.329 106.983 416.316 106.982Z" fill="#3B3029"/>
<path d="M524 313.5C524 340.838 501.838 363 474.5 363C447.162 363 425 340.838 425 313.5C425 286.162 447.162 264 474.5 264C501.838 264 524 286.162 524 313.5Z" fill="#556B2F"/>
<path d="M435.419 300.493C435.856 300.463 436.182 300.633 436.23 300.658C436.343 300.713 436.433 300.774 436.488 300.813C436.603 300.894 436.717 300.99 436.819 301.079C437.106 301.33 437.266 301.667 437.311 302.017C437.424 302.166 437.555 302.339 437.704 302.53L440.3 305.746L440.467 306.001C440.79 306.62 440.646 307.401 440.083 307.859C439.52 308.315 438.727 308.297 438.187 307.856L437.973 307.639L435.34 304.375C434.925 303.845 434.521 303.31 434.314 302.972C434.27 302.899 434.174 302.738 434.106 302.55C434.087 302.496 433.975 302.201 434.021 301.824C434.048 301.601 434.143 301.247 434.449 300.939C434.767 300.619 435.146 300.513 435.419 300.493Z" fill="#3B3029"/>
<path d="M469.827 301.416C470.656 301.416 471.327 302.088 471.327 302.916C471.327 303.745 470.656 304.416 469.827 304.416C469.281 304.417 468.526 304.658 467.568 305.102C467.11 305.314 466.657 305.546 466.194 305.782C465.971 305.895 465.743 306.013 465.515 306.124L464.844 306.432C464.367 306.636 463.87 306.878 463.317 307.144C462.777 307.404 462.191 307.683 461.589 307.938C460.397 308.442 459.015 308.902 457.552 308.902C456.723 308.902 456.052 308.23 456.052 307.402C456.052 306.573 456.723 305.902 457.552 305.902C458.414 305.902 459.355 305.625 460.42 305.175C460.946 304.953 461.471 304.702 462.017 304.44C462.55 304.183 463.113 303.911 463.663 303.675L464.835 303.11C465.28 302.883 465.788 302.621 466.309 302.38C467.307 301.918 468.577 301.416 469.827 301.416Z" fill="#3B3029"/>
<path d="M439.024 321.705C439.365 321.744 439.696 321.792 440.012 321.84C440.67 321.94 441.235 322.036 441.805 322.098L442.643 322.174C443.482 322.237 444.336 322.266 445.221 322.291C446.382 322.324 447.609 322.353 448.836 322.461L450.898 322.681C451.583 322.763 452.26 322.848 452.917 322.927C454.254 323.086 455.541 323.219 456.802 323.243L457.241 323.267C457.669 323.306 458.058 323.38 458.363 323.437C458.807 323.519 459.111 323.571 459.409 323.571H464.349L464.65 323.601C465.335 323.74 465.849 324.346 465.849 325.071C465.848 325.796 465.334 326.4 464.65 326.539L464.349 326.571H459.409C458.797 326.571 458.235 326.465 457.815 326.387C457.587 326.344 457.396 326.309 457.224 326.284L456.746 326.24C455.33 326.213 453.921 326.068 452.562 325.906C451.872 325.824 451.202 325.74 450.541 325.66L448.575 325.449C447.456 325.351 446.329 325.325 445.136 325.291C444.254 325.266 443.338 325.235 442.411 325.165L441.482 325.08C440.828 325.009 440.147 324.894 439.561 324.805C439.254 324.758 438.964 324.716 438.685 324.685L437.876 324.62C437.435 324.605 436.969 324.634 436.429 324.673C435.913 324.71 435.31 324.761 434.709 324.761C433.881 324.761 433.21 324.089 433.209 323.261C433.209 322.432 433.881 321.761 434.709 321.761C435.176 321.761 435.653 321.722 436.215 321.682C436.751 321.643 437.362 321.601 437.981 321.623L439.024 321.705Z" fill="#3B3029"/>
<path d="M446.383 333.47V325.071C446.383 324.243 447.055 323.571 447.883 323.571C448.608 323.571 449.214 324.085 449.354 324.769L449.383 325.071V333.47C449.383 335.028 449.368 335.669 449.861 336.218L450.3 336.678C450.435 336.807 450.576 336.925 450.713 337.021C450.78 336.914 450.854 336.782 450.921 336.62C451.061 336.281 451.148 335.919 451.176 335.635L451.276 334.988C451.316 334.788 451.357 334.611 451.387 334.475C451.456 334.164 451.487 333.971 451.487 333.799C451.487 333.666 451.481 333.52 451.472 333.336C451.464 333.162 451.455 332.949 451.452 332.735C451.446 332.317 451.464 331.76 451.639 331.2L451.666 330.901C451.666 330.808 451.663 330.708 451.66 330.582C451.656 330.465 451.654 330.314 451.654 330.166C451.654 329.154 451.879 328.265 452.061 327.517L452.128 327.078C452.159 326.85 452.202 326.543 452.263 326.237C452.323 325.94 452.415 325.566 452.577 325.212C452.728 324.88 453.034 324.358 453.634 324.057L453.918 323.952C454.592 323.771 455.322 324.08 455.647 324.728C455.96 325.355 455.79 326.092 455.284 326.53C455.263 326.593 455.232 326.688 455.205 326.826C455.165 327.025 455.135 327.241 455.102 327.482L454.976 328.226C454.781 329.029 454.654 329.572 454.654 330.166C454.654 330.26 454.656 330.361 454.66 330.494C454.663 330.618 454.667 330.77 454.666 330.927C454.663 331.161 454.651 331.455 454.586 331.771L454.501 332.096C454.47 332.198 454.447 332.375 454.452 332.694C454.454 332.848 454.46 333.006 454.469 333.195C454.478 333.374 454.487 333.587 454.487 333.799C454.487 334.319 454.391 334.781 454.317 335.12C454.275 335.309 454.243 335.455 454.217 335.583L454.162 335.934C454.104 336.51 453.946 337.156 453.696 337.762C453.512 338.208 453.253 338.694 452.896 339.122L452.506 339.526C451.936 340.036 451.25 340.211 450.602 340.141C450.018 340.079 449.523 339.828 449.169 339.602C448.818 339.378 448.498 339.102 448.232 338.849L447.625 338.222C446.199 336.631 446.383 334.581 446.383 333.47Z" fill="#3B3029"/>
<path d="M492.141 280.757C492.601 280.232 493.383 280.084 494.013 280.444C494.732 280.855 494.981 281.773 494.57 282.492L494.195 283.084C493.801 283.646 493.364 284.122 492.991 284.528C492.592 284.961 492.265 285.315 491.994 285.673L491.742 286.037C491.252 286.813 490.683 287.529 490.149 288.184C489.873 288.523 489.608 288.841 489.358 289.151L488.646 290.074C488.159 290.744 487.221 290.892 486.551 290.405C485.881 289.918 485.733 288.98 486.22 288.31L487.023 287.267C487.296 286.928 487.568 286.6 487.823 286.289C488.348 285.644 488.819 285.046 489.205 284.434L489.589 283.878C489.99 283.346 490.424 282.886 490.782 282.498C491.291 281.944 491.68 281.502 491.965 281.004L492.141 280.757Z" fill="#3B3029"/>
<path d="M486.809 281.265L487.105 281.333L488.212 281.728C490.764 282.691 493.126 283.923 495.346 285.033L495.604 285.197C496.151 285.628 496.34 286.398 496.017 287.046C495.692 287.694 494.962 288.006 494.288 287.825L494.004 287.717L492.056 286.741C490.442 285.937 488.84 285.171 487.163 284.538L486.149 284.175L485.871 284.049C485.269 283.698 484.975 282.963 485.206 282.276C485.437 281.589 486.116 281.18 486.809 281.265Z" fill="#3B3029"/>
<defs>
<radialGradient id="paint0_radial_7_3" cx="0" cy="0" r="1" gradientUnits="userSpaceOnUse" gradientTransform="translate(251.5 213.5) rotate(90) scale(243.759)">
<stop stop-color="#B46A55" stop-opacity="0.7"/>
<stop offset="1" stop-color="#F3EEE2" stop-opacity="0"/>
</radialGradient>
</defs>
</svg>
