<svg
  width="33"
  height="34"
  viewBox="0 0 33 34"
  fill="none"
  xmlns="http://www.w3.org/2000/svg"
  class="flex-grow-0 flex-shrink-0 w-[33px] h-[33px]"
  preserveAspectRatio="none"
>
  <circle cx="16.5" cy="17" r="16.5" fill="#2F4F4F"></circle>
  <path
    d="M4.87061 19.7716C4.90636 19.4499 5.63924 19.3787 5.89235 19.3787C6.39793 19.3787 6.49043 19.5353 6.60408 20.0467C6.70094 20.4826 7.05651 20.5537 7.34638 20.3218C7.47956 20.2153 7.50016 19.9072 7.62146 19.7716C7.80895 19.5621 7.98712 19.5359 8.25023 19.5359C8.43795 19.5359 8.6977 19.5482 8.8004 19.728C8.87084 19.8512 8.85427 19.9962 8.94013 20.1035C9.17747 20.4002 9.26771 20.6992 9.77849 20.5532C10.1138 20.4574 10.0943 20.0074 10.5295 20.0074C10.9322 20.0074 11.0522 20.3651 11.3941 20.479"
    stroke="#3B3029"
    stroke-linecap="round"
  ></path>
  <path
    d="M4.32031 13.1696C4.87252 13.1696 5.26943 13.5563 5.48179 14.0341C5.6102 14.3231 4.69017 14.7762 4.5561 14.9773"
    stroke="#3B3029"
    stroke-linecap="round"
  ></path>
  <path
    d="M12.8084 13.3268C12.431 13.3268 12.1495 13.3435 11.8259 13.5232C11.4137 13.7522 11.2773 13.7221 11.4722 14.1607C11.6261 14.5068 12.1625 15.2045 12.494 15.3702"
    stroke="#3B3029"
    stroke-linecap="round"
  ></path>
</svg>