<svg width="40" height="34" viewBox="0 0 40 34" fill="none" xmlns="http://www.w3.org/2000/svg">
<path d="M7.03613 1.81445C10.4823 0.258918 15.0413 0.721503 19.2842 5.0752L20 5.80957L20.7158 5.0752C24.9586 0.721617 29.5176 0.259208 32.9639 1.81543C36.4699 3.39873 39 7.14056 39 11.5605C38.9999 16.0453 37.1351 19.4981 34.502 22.4258C32.5013 24.6502 30.1051 26.5242 27.7656 28.3076L25.4619 30.0703L25.4609 30.0713C24.4143 30.8878 23.4491 31.6288 22.5098 32.1709C21.5704 32.7131 20.7494 33 20 33C19.2508 33 18.43 32.7132 17.4902 32.1709C16.7856 31.7642 16.0668 31.2454 15.3096 30.668L14.5381 30.0723C11.5364 27.7349 8.16681 25.391 5.49902 22.4248C2.86558 19.4968 1.00013 16.0443 1 11.5586C1 7.13764 3.53038 3.39705 7.03613 1.81445Z" stroke="#373737" stroke-opacity="0.8" stroke-width="2"/>
</svg>
