<svg
  width="33"
  height="34"
  viewBox="0 0 33 34"
  fill="none"
  xmlns="http://www.w3.org/2000/svg"
  class="flex-grow-0 flex-shrink-0 w-[33px] h-[33px]"
  preserveAspectRatio="none"
>
  <circle cx="16.5" cy="17" r="16.5" fill="#9370DB"></circle>
  <path
    d="M4.76616 12.1178C4.5877 12.2219 4.54451 12.5098 4.43606 12.6764C4.27487 12.9241 4.22106 13.2142 4.13644 13.494C4.01579 13.8931 3.96046 14.3676 3.94346 14.7839C3.93104 15.0884 3.85205 15.3758 3.85205 15.6828C3.85205 15.9232 3.85205 16.1636 3.85205 16.4039C3.85205 16.7351 4.09699 16.8765 4.40051 16.9524C4.58931 16.9996 4.99852 17.0104 5.15211 16.8864C5.44143 16.6527 5.6259 16.2936 5.81738 15.9824C6.09102 15.5378 6.26705 15.0782 6.40139 14.5757C6.50751 14.1788 6.50296 13.8036 6.50296 13.3975C6.50296 13.0788 6.37938 12.6951 6.22619 12.4174C6.14819 12.2761 5.94825 11.8893 5.74882 11.8893C5.55176 11.8893 5.49305 12.1348 5.40603 12.2778C5.29353 12.4626 5.1476 12.6557 5.015 12.8262C4.52322 13.4585 4.40051 14.4991 4.40051 15.2816C4.40051 15.4485 4.34731 16.1792 4.72045 15.9926C5.0664 15.8196 5.35776 15.1534 5.49744 14.8398C5.68737 14.4134 5.88792 13.9942 5.99004 13.5347C6.03429 13.3355 6.0002 13.0991 6.0002 12.8948C6.0002 12.7408 5.75311 12.8034 5.63456 12.8034C5.53803 12.8034 5.33027 12.7993 5.31462 12.6663C5.30659 12.598 5.22642 12.3244 5.15211 12.3032C4.96119 12.2486 4.96763 11.7032 5.29177 11.9553C5.55213 12.1578 5.68026 12.4577 5.68026 12.7831C5.68026 13.2876 5.7049 13.6727 5.40349 14.106C5.28759 14.2726 5.17783 14.4387 5.10895 14.6316C5.0695 14.7421 5.08064 14.9515 4.94898 14.9515"
    stroke="#3B3029"
    stroke-linecap="round"
  ></path>
  <path
    d="M12.4448 12.3007C12.4448 12.9567 12.2503 13.5545 12.1452 14.2C12.1004 14.4751 12.0792 14.7234 12.0792 15.0024C12.0792 15.3378 12.0234 15.7287 12.0893 16.0587C12.1729 16.4767 12.538 16.9169 12.9704 16.9169C13.3918 16.9169 13.6305 16.5902 13.8972 16.277C14.157 15.9721 14.4697 15.5763 14.6158 15.2029C14.7625 14.828 14.9479 14.5445 14.9942 14.134C15.0351 13.7709 15.0654 13.2811 14.9485 12.9304C14.7957 12.4721 14.5585 12.111 14.0648 11.9909C13.6613 11.8927 13.2022 11.935 12.7876 11.935C12.6676 11.935 12.5378 12.0666 12.5007 12.1737C12.3119 12.719 12.1905 13.2645 12.1731 13.8546C12.1455 14.7949 12.1498 15.8059 12.6734 16.6325C12.7002 16.6749 12.7859 16.856 12.8562 16.8153C13.0779 16.687 13.2229 16.1557 13.3361 15.9342C13.6805 15.2603 13.9207 14.6228 14.1004 13.8902C14.1376 13.7384 14.4201 12.288 14.0851 12.3997C13.6842 12.5333 13.4023 13.3424 13.2193 13.6718C13.0909 13.9029 13.0272 14.0761 12.9704 14.3345C12.9372 14.4858 12.9019 14.949 12.9019 14.7941C12.9019 14.459 12.9019 14.1238 12.9019 13.7886C12.9019 13.7165 12.9063 13.4484 12.7876 13.4484C12.6871 13.4484 12.6906 13.7255 12.6835 13.7785C12.6406 14.1 12.6734 14.4443 12.6734 14.7687C12.6734 14.9024 12.672 14.7761 12.6835 14.7129C12.7468 14.3646 12.8541 14.027 12.9247 13.6794C12.989 13.3631 13.1039 13.0389 13.0847 12.712C13.0828 12.6791 12.8266 12.4294 12.813 12.613C12.7463 13.5137 12.8105 14.4369 12.8105 15.3401C12.8105 15.5721 12.8012 15.8065 12.8105 16.0383C12.8163 16.1835 12.9062 15.7848 12.9247 15.7514C13.2523 15.1618 13.5197 14.5385 13.816 13.9461"
    stroke="#3B3029"
    stroke-linecap="round"
  ></path>
  <path
    d="M5.73713 13.6186C5.74375 13.5657 5.89582 13.59 5.89582 13.6737C5.89582 13.7096 5.91944 13.8865 5.89141 13.9117C5.83111 13.966 5.70626 13.8913 5.68203 13.8368C5.65726 13.781 5.66107 13.6175 5.7173 13.5987"
    stroke="#FAF5F1"
    stroke-linecap="round"
  ></path>
  <path d="M4.84473 15.8005V15.8204" stroke="#FAF5F1" stroke-linecap="round"></path>
  <path
    d="M12.9974 13.6979C13.0047 13.6688 13.0762 13.6692 13.0933 13.6891C13.1039 13.7015 13.0966 13.7418 13.0966 13.7574C13.0966 13.8093 13.0839 13.8363 13.0371 13.861C12.9043 13.9313 12.8784 13.8184 12.8784 13.7178"
    stroke="#FAF5F1"
    stroke-linecap="round"
  ></path>
  <path d="M12.8983 15.6022H12.8784" stroke="#FAF5F1" stroke-linecap="round"></path>
  <path
    d="M8.04739 19.2486C7.84609 19.271 7.7271 19.6025 7.69181 19.7614C7.63316 20.0253 7.62305 20.2625 7.62305 20.5393C7.62305 20.686 7.75 20.7196 7.85486 20.7967C8.06586 20.9518 8.30475 21.0521 8.57781 21.0521C8.74021 21.0521 8.90261 21.0521 9.06501 21.0521C9.26247 21.0521 9.35455 20.9068 9.45988 20.7554C9.62031 20.5248 9.81891 19.9177 9.6308 19.6572C9.41562 19.3593 9.1036 18.9304 8.71926 18.9304C8.46072 18.9304 8.19439 19.0272 8.01988 19.2211C7.87043 19.3872 7.88687 19.605 7.79985 19.779"
    stroke="#3B3029"
    stroke-linecap="round"
  ></path>
</svg>