<svg width="33" height="34" viewBox="0 0 33 34" fill="none" xmlns="http://www.w3.org/2000/svg">
<circle cx="16.5" cy="17" r="16.5" fill="#FFD700"/>
<path d="M12.1118 19.4393C11.9348 19.4983 12.4745 19.5279 12.6559 19.5716C12.8607 19.6211 13.6425 19.7596 13.6964 20.0018C13.7286 20.147 13.695 20.3078 13.6191 20.4319C13.5227 20.5897 13.1313 20.7126 12.9648 20.7959C12.8994 20.8286 12.2162 21.0275 12.4758 21.0275C12.6731 21.0275 13.2537 21.1681 13.3545 21.3584C13.4096 21.4625 13.3692 21.6722 13.3692 21.7885C13.3692 22.1844 12.7609 22.1779 12.6412 22.4172" stroke="#3B3029" stroke-linecap="round"/>
<path d="M4.55847 18.0369C4.47661 18.0252 5.2926 17.1898 5.59634 17.172C5.67682 17.1672 5.80141 17.0888 5.89424 17.0663C6.39282 16.945 6.84329 16.8657 7.35494 16.8212C7.69876 16.7913 8.04361 16.6984 8.38799 16.6578C8.64913 16.6271 8.95679 16.7395 9.22885 16.7395" stroke="#3B3029" stroke-linecap="round"/>
<path d="M13.4668 16.653C13.8005 16.496 14.307 16.461 14.6776 16.3936C15.1296 16.3114 15.6017 16.2082 16.0615 16.2206C16.5332 16.2333 17.4851 16.6462 17.7047 17.0855" stroke="#3B3029" stroke-linecap="round"/>
</svg>
