<svg
  width="978"
  height="978"
  viewBox="0 0 978 978"
  fill="none"
  xmlns="http://www.w3.org/2000/svg"
  class="w-[978px] h-[978px] relative"
  preserveAspectRatio="xMidYMid meet"
>
  <path
    d="M696.198 693.06C810.322 578.936 810.322 393.904 696.198 279.78C582.074 165.655 397.042 165.655 282.918 279.78C168.793 393.904 168.793 578.936 282.918 693.06C397.042 807.184 582.074 807.184 696.198 693.06Z"
    fill="#1B1817"
  ></path>
  <path
    d="M489.559 782.443C449.599 782.443 410.827 774.609 374.331 759.182C339.08 744.278 307.42 722.927 280.243 695.75C253.051 668.572 231.714 636.913 216.81 601.661C201.369 565.166 193.55 526.394 193.55 486.434C193.55 446.474 201.383 407.702 216.81 371.206C231.714 335.955 253.065 304.295 280.243 277.118C307.434 249.926 339.08 228.589 374.331 213.685C410.827 198.244 449.599 190.425 489.559 190.425C529.519 190.425 568.291 198.258 604.786 213.685C640.038 228.589 671.697 249.94 698.875 277.118C726.066 304.309 747.403 335.955 762.307 371.206C777.748 407.702 785.568 446.474 785.568 486.434C785.568 526.394 777.734 565.166 762.307 601.661C747.403 636.913 726.052 668.572 698.875 695.75C671.697 722.941 640.038 744.278 604.786 759.182C568.291 774.623 529.519 782.443 489.559 782.443ZM489.559 197.99C450.617 197.99 412.849 205.611 377.286 220.656C342.94 235.178 312.1 255.978 285.602 282.477C259.117 308.961 238.317 339.815 223.781 374.161C208.736 409.724 201.115 447.492 201.115 486.434C201.115 525.376 208.736 563.144 223.781 598.706C238.303 633.052 259.103 663.892 285.602 690.391C312.086 716.875 342.94 737.675 377.286 752.211C412.849 767.256 450.617 774.878 489.559 774.878C528.5 774.878 566.269 767.256 601.831 752.211C636.177 737.689 667.017 716.889 693.515 690.391C720 663.906 740.8 633.052 755.336 598.706C770.381 563.144 778.003 525.376 778.003 486.434C778.003 447.492 770.381 409.724 755.336 374.161C740.814 339.815 720.014 308.975 693.515 282.477C667.031 255.992 636.177 235.192 601.831 220.656C566.269 205.611 528.5 197.99 489.559 197.99Z"
    fill="#1B1817"
  ></path>
  <path
    d="M489.559 778.836C450.08 778.836 411.788 771.102 375.731 755.859C340.904 741.125 309.64 720.042 282.788 693.19C255.936 666.338 234.853 635.06 220.119 600.247C204.876 564.19 197.142 525.898 197.142 486.419C197.142 446.94 204.876 408.649 220.119 372.591C234.853 337.764 255.936 306.501 282.788 279.649C309.64 252.796 340.918 231.714 375.731 216.98C411.788 201.737 450.08 194.002 489.559 194.002C529.038 194.002 567.329 201.737 603.372 216.98C638.2 231.699 669.463 252.796 696.315 279.649C723.167 306.501 744.25 337.778 758.984 372.591C774.227 408.649 781.962 446.94 781.962 486.419C781.962 525.898 774.227 564.19 758.984 600.247C744.25 635.074 723.167 666.338 696.315 693.19C669.463 720.042 638.185 741.125 603.372 755.859C567.329 771.102 529.024 778.836 489.559 778.836ZM489.559 194.384C450.136 194.384 411.887 202.104 375.887 217.333C341.116 232.039 309.881 253.093 283.057 279.917C256.233 306.741 235.178 337.962 220.473 372.747C205.244 408.748 197.523 446.997 197.523 486.419C197.523 525.842 205.244 564.091 220.473 600.091C235.178 634.862 256.233 666.097 283.057 692.921C309.881 719.745 341.116 740.799 375.887 755.505C411.887 770.734 450.136 778.455 489.559 778.455C528.981 778.455 567.23 770.734 603.231 755.505C638.002 740.799 669.237 719.745 696.061 692.921C722.885 666.097 743.939 634.876 758.645 600.091C773.874 564.091 781.594 525.842 781.594 486.419C781.594 446.997 773.874 408.748 758.645 372.747C743.939 337.976 722.885 306.741 696.061 279.917C669.237 253.093 638.016 232.039 603.231 217.333C567.23 202.104 528.981 194.384 489.559 194.384Z"
    fill="#626364"
  ></path>
  <path
    d="M489.559 765.941C451.819 765.941 415.21 758.546 380.751 743.967C347.465 729.884 317.573 709.734 291.894 684.07C266.23 658.405 246.066 628.513 231.997 595.227C217.418 560.768 210.037 524.159 210.037 486.419C210.037 448.679 217.432 412.071 231.997 377.611C246.08 344.326 266.23 314.433 291.894 288.755C317.558 263.091 347.465 242.927 380.751 228.858C415.21 214.279 451.819 206.898 489.559 206.898C527.298 206.898 563.893 214.293 598.367 228.858C631.652 242.941 661.545 263.091 687.209 288.755C712.887 314.419 733.037 344.326 747.106 377.611C761.685 412.071 769.08 448.679 769.08 486.419C769.08 524.159 761.685 560.768 747.106 595.227C733.023 628.513 712.873 658.405 687.209 684.07C661.545 709.734 631.652 729.898 598.367 743.967C563.907 758.546 527.298 765.941 489.559 765.941ZM489.559 207.251C451.875 207.251 415.309 214.633 380.892 229.197C347.649 243.252 317.799 263.388 292.163 289.024C266.527 314.66 246.391 344.509 232.336 377.753C217.786 412.17 210.405 448.722 210.405 486.419C210.405 524.117 217.786 560.669 232.336 595.086C246.391 628.329 266.527 658.179 292.163 683.815C317.799 709.451 347.663 729.573 380.892 743.642C415.309 758.192 451.861 765.573 489.559 765.573C527.256 765.573 563.808 758.192 598.225 743.642C631.469 729.573 661.318 709.451 686.954 683.815C712.59 658.179 732.726 628.315 746.781 595.086C761.331 560.669 768.712 524.103 768.712 486.419C768.712 448.736 761.331 412.17 746.781 377.753C732.726 344.509 712.59 314.66 686.954 289.024C661.318 263.388 631.454 243.252 598.225 229.197C563.808 214.647 527.242 207.251 489.559 207.251Z"
    fill="#626364"
  ></path>
  <path
    d="M489.559 753.045C453.558 753.045 418.646 745.989 385.77 732.09C354.026 718.657 325.505 699.44 301.015 674.95C276.524 650.459 257.308 621.953 243.875 590.194C229.975 557.318 222.919 522.406 222.919 486.405C222.919 450.405 229.975 415.493 243.875 382.617C257.308 350.873 276.524 322.352 301.015 297.861C325.505 273.371 354.012 254.154 385.77 240.721C418.646 226.822 453.558 219.766 489.559 219.766C525.56 219.766 560.471 226.822 593.347 240.721C625.092 254.154 653.612 273.371 678.103 297.861C702.594 322.352 721.81 350.858 735.243 382.617C749.143 415.493 756.199 450.405 756.199 486.405C756.199 522.406 749.143 557.318 735.243 590.194C721.81 621.938 702.594 650.459 678.103 674.95C653.612 699.44 625.106 718.657 593.347 732.09C560.471 745.989 525.56 753.045 489.559 753.045ZM489.559 220.133C453.615 220.133 418.731 227.175 385.912 241.061C354.21 254.465 325.732 273.668 301.269 298.13C276.807 322.578 257.619 351.056 244.2 382.773C230.314 415.606 223.272 450.475 223.272 486.42C223.272 522.364 230.314 557.247 244.2 590.067C257.605 621.783 276.807 650.247 301.269 674.709C325.717 699.157 354.196 718.36 385.912 731.779C418.745 745.664 453.615 752.706 489.559 752.706C525.503 752.706 560.372 745.664 593.206 731.779C624.922 718.36 653.386 699.172 677.848 674.709C702.297 650.261 721.499 621.783 734.918 590.067C748.803 557.233 755.845 522.364 755.845 486.42C755.845 450.475 748.803 415.592 734.918 382.773C721.513 351.071 702.311 322.592 677.848 298.13C653.4 273.668 624.922 254.48 593.206 241.061C560.372 227.175 525.503 220.133 489.559 220.133Z"
    fill="#626364"
  ></path>
  <path
    d="M489.559 740.149C455.297 740.149 422.068 733.447 390.79 720.212C360.573 707.429 333.438 689.132 310.135 665.829C286.832 642.526 268.535 615.391 255.752 585.174C242.517 553.896 235.814 520.667 235.814 486.405C235.814 452.144 242.517 418.915 255.752 387.637C268.535 357.419 286.832 330.284 310.135 306.982C333.438 283.679 360.573 265.381 390.79 252.599C422.068 239.364 455.297 232.661 489.559 232.661C523.82 232.661 557.035 239.364 588.327 252.599C618.545 265.381 645.679 283.679 668.982 306.982C692.285 330.284 710.582 357.419 723.365 387.637C736.6 418.915 743.303 452.144 743.303 486.405C743.303 520.667 736.586 553.882 723.365 585.174C710.582 615.391 692.285 642.526 668.982 665.829C645.679 689.132 618.545 707.429 588.327 720.212C557.049 733.447 523.82 740.149 489.559 740.149ZM489.559 233.015C455.354 233.015 422.167 239.717 390.917 252.924C360.742 265.692 333.636 283.961 310.375 307.236C287.101 330.511 268.832 357.603 256.063 387.778C242.856 419.014 236.154 452.2 236.154 486.419C236.154 520.638 242.856 553.811 256.063 585.061C268.832 615.236 287.101 642.342 310.375 665.603C333.65 688.877 360.742 707.146 390.917 719.901C422.153 733.122 455.339 739.81 489.559 739.81C523.778 739.81 556.95 733.108 588.2 719.901C618.375 707.132 645.481 688.863 668.742 665.603C692.016 642.328 710.285 615.236 723.04 585.061C736.261 553.825 742.949 520.638 742.949 486.419C742.949 452.2 736.247 419.028 723.04 387.778C710.285 357.603 692.002 330.496 668.742 307.236C645.467 283.961 618.375 265.692 588.2 252.924C556.964 239.717 523.778 233.015 489.559 233.015Z"
    fill="#626364"
  ></path>
  <path
    d="M489.558 727.254C457.05 727.254 425.504 720.891 395.809 708.334C367.133 696.202 341.37 678.838 319.255 656.723C297.14 634.608 279.776 608.845 267.644 580.168C255.087 550.474 248.71 518.942 248.71 486.42C248.71 453.897 255.073 422.365 267.644 392.671C279.776 363.995 297.14 338.231 319.255 316.116C341.37 294.001 367.133 276.637 395.809 264.505C425.504 251.949 457.036 245.585 489.558 245.585C522.08 245.585 553.613 251.949 583.307 264.505C611.983 276.637 637.747 294.001 659.862 316.116C681.977 338.231 699.341 363.995 711.473 392.671C724.029 422.365 730.406 453.897 730.406 486.42C730.406 518.942 724.044 550.474 711.473 580.168C699.341 608.845 681.977 634.608 659.862 656.723C637.747 678.838 611.983 696.202 583.307 708.334C553.613 720.891 522.08 727.254 489.558 727.254ZM489.558 245.882C457.093 245.882 425.588 252.245 395.937 264.788C367.289 276.906 341.568 294.242 319.481 316.343C297.394 338.429 280.044 364.15 267.926 392.798C255.384 422.45 249.021 453.954 249.021 486.42C249.021 518.885 255.384 550.389 267.926 580.041C280.044 608.689 297.38 634.41 319.481 656.497C341.568 678.584 367.289 695.933 395.937 708.051C425.588 720.594 457.093 726.957 489.558 726.957C522.024 726.957 553.528 720.594 583.18 708.051C611.828 695.933 637.548 678.598 659.635 656.497C681.722 634.41 699.072 608.689 711.176 580.041C723.718 550.389 730.081 518.885 730.081 486.42C730.081 453.954 723.718 422.45 711.176 392.798C699.058 364.15 681.722 338.429 659.635 316.343C637.548 294.256 611.828 276.906 583.18 264.788C553.528 252.245 522.024 245.882 489.558 245.882Z"
    fill="#626364"
  ></path>
  <path
    d="M489.558 714.372C458.789 714.372 428.925 708.348 400.829 696.456C373.68 684.975 349.302 668.544 328.375 647.602C307.448 626.661 291.003 602.297 279.521 575.148C267.629 547.052 261.605 517.188 261.605 486.419C261.605 455.65 267.629 425.787 279.521 397.69C291.003 370.541 307.434 346.164 328.375 325.236C349.302 304.309 373.694 287.864 400.829 276.382C428.925 264.49 458.789 258.467 489.558 258.467C520.327 258.467 550.177 264.49 578.287 276.382C605.436 287.864 629.814 304.295 650.741 325.236C671.682 346.164 688.113 370.555 699.595 397.69C711.487 425.787 717.511 455.65 717.511 486.419C717.511 517.188 711.487 547.038 699.595 575.148C688.113 602.297 671.682 626.675 650.741 647.602C629.8 668.544 605.436 684.975 578.287 696.456C550.191 708.348 520.327 714.372 489.558 714.372ZM489.558 258.764C458.817 258.764 429.01 264.787 400.942 276.651C373.835 288.119 349.486 304.535 328.587 325.434C307.674 346.348 291.271 370.683 279.804 397.789C267.94 425.857 261.917 455.665 261.917 486.405C261.917 517.146 267.94 546.953 279.804 575.021C291.271 602.128 307.688 626.477 328.587 647.39C349.5 668.303 373.835 684.706 400.942 696.174C429.01 708.037 458.817 714.061 489.558 714.061C520.299 714.061 550.106 708.037 578.174 696.174C605.281 684.706 629.63 668.289 650.543 647.39C671.456 626.477 687.873 602.142 699.326 575.021C711.204 546.953 717.214 517.146 717.214 486.405C717.214 455.665 711.19 425.857 699.326 397.789C687.859 370.683 671.442 346.333 650.543 325.434C629.63 304.521 605.295 288.119 578.174 276.651C550.106 264.773 520.299 258.764 489.558 258.764Z"
    fill="#626364"
  ></path>
  <path
    d="M489.558 701.476C460.529 701.476 432.362 695.792 405.849 684.579C380.241 673.748 357.235 658.236 337.496 638.496C317.742 618.743 302.244 595.751 291.413 570.143C280.2 543.63 274.516 515.463 274.516 486.434C274.516 457.404 280.2 429.237 291.413 402.724C302.244 377.117 317.756 354.111 337.496 334.371C357.249 314.617 380.241 299.12 405.849 288.289C432.362 277.075 460.529 271.391 489.558 271.391C518.588 271.391 546.755 277.075 573.268 288.289C598.875 299.12 621.881 314.632 641.621 334.371C661.375 354.125 676.872 377.117 687.703 402.724C698.917 429.237 704.601 457.404 704.601 486.434C704.601 515.463 698.917 543.63 687.703 570.143C676.872 595.751 661.36 618.757 641.621 638.496C621.867 658.25 598.875 673.748 573.268 684.579C546.755 695.792 518.588 701.476 489.558 701.476ZM489.558 271.646C460.557 271.646 432.432 277.33 405.962 288.529C380.383 299.346 357.419 314.83 337.694 334.555C317.968 354.28 302.485 377.244 291.668 402.823C280.469 429.308 274.784 457.432 274.784 486.42C274.784 515.407 280.469 543.546 291.668 570.016C302.485 595.595 317.968 618.559 337.694 638.284C357.419 658.01 380.383 673.493 405.962 684.31C432.446 695.509 460.571 701.194 489.558 701.194C518.545 701.194 546.684 695.509 573.155 684.31C598.734 673.493 621.697 658.01 641.423 638.284C661.148 618.559 676.632 595.595 687.449 570.016C698.648 543.531 704.332 515.407 704.332 486.42C704.332 457.432 698.648 429.294 687.449 402.823C676.632 377.244 661.148 354.28 641.423 334.555C621.697 314.83 598.734 299.346 573.155 288.529C546.67 277.33 518.545 271.646 489.558 271.646Z"
    fill="#626364"
  ></path>
  <path
    d="M489.559 688.58C462.269 688.58 435.798 683.235 410.869 672.701C386.789 662.52 365.168 647.942 346.603 629.376C328.037 610.81 313.458 589.19 303.277 565.109C292.729 540.194 287.384 513.71 287.384 486.419C287.384 459.129 292.729 432.659 303.277 407.73C313.458 383.649 328.037 362.029 346.603 343.463C365.168 324.897 386.789 310.318 410.869 300.138C435.798 289.589 462.269 284.244 489.559 284.244C516.849 284.244 543.32 289.589 568.249 300.138C592.329 310.318 613.949 324.897 632.515 343.463C651.081 362.029 665.66 383.649 675.841 407.73C686.389 432.659 691.734 459.129 691.734 486.419C691.734 513.71 686.389 540.18 675.841 565.109C665.66 589.19 651.081 610.81 632.515 629.376C613.949 647.942 592.329 662.52 568.249 672.701C543.334 683.235 516.849 688.58 489.559 688.58ZM489.559 284.513C462.297 284.513 435.855 289.858 410.968 300.378C386.93 310.545 365.338 325.109 346.786 343.647C328.249 362.184 313.684 383.776 303.518 407.829C292.983 432.715 287.652 459.157 287.652 486.419C287.652 513.681 292.997 540.109 303.518 565.01C313.684 589.048 328.249 610.64 346.786 629.192C365.324 647.73 386.916 662.294 410.968 672.461C435.855 682.995 462.297 688.326 489.559 688.326C516.821 688.326 543.249 682.981 568.15 672.461C592.188 662.294 613.78 647.73 632.332 629.192C650.869 610.654 665.433 589.062 675.6 565.01C686.135 540.123 691.465 513.681 691.465 486.419C691.465 459.157 686.135 432.715 675.6 407.829C665.433 383.79 650.869 362.199 632.332 343.647C613.794 325.109 592.202 310.545 568.15 300.378C543.263 289.844 516.821 284.513 489.559 284.513Z"
    fill="#626364"
  ></path>
  <path
    d="M489.559 675.685C464.008 675.685 439.22 670.679 415.889 660.809C393.349 651.279 373.115 637.634 355.723 620.241C338.344 602.863 324.699 582.615 315.155 560.089C305.285 536.758 300.279 511.971 300.279 486.42C300.279 460.868 305.285 436.081 315.155 412.75C324.685 390.21 338.33 369.976 355.723 352.583C373.115 335.191 393.349 321.56 415.889 312.016C439.22 302.146 464.008 297.14 489.559 297.14C515.11 297.14 539.897 302.146 563.229 312.016C585.768 321.546 606.002 335.191 623.381 352.583C640.759 369.962 654.404 390.21 663.949 412.75C673.818 436.081 678.824 460.868 678.824 486.42C678.824 511.971 673.818 536.758 663.949 560.089C654.418 582.629 640.773 602.863 623.381 620.241C606.002 637.62 585.754 651.265 563.229 660.809C539.897 670.679 515.11 675.685 489.559 675.685ZM489.559 297.395C464.036 297.395 439.291 302.386 415.988 312.242C393.477 321.758 373.27 335.389 355.906 352.753C338.542 370.117 324.911 390.323 315.395 412.834C305.539 436.137 300.548 460.897 300.548 486.405C300.548 511.914 305.539 536.673 315.395 559.976C324.911 582.487 338.542 602.694 355.906 620.058C373.27 637.422 393.477 651.039 415.988 660.569C439.291 670.425 464.05 675.416 489.559 675.416C515.067 675.416 539.827 670.425 563.13 660.569C585.641 651.053 605.847 637.422 623.211 620.058C640.575 602.694 654.192 582.487 663.722 559.976C673.578 536.673 678.569 511.914 678.569 486.405C678.569 460.897 673.578 436.137 663.722 412.834C654.206 390.323 640.575 370.117 623.211 352.753C605.847 335.389 585.641 321.758 563.13 312.242C539.827 302.386 515.067 297.395 489.559 297.395Z"
    fill="#626364"
  ></path>
  <path
    d="M489.559 662.789C465.747 662.789 442.656 658.122 420.909 648.931C399.911 640.051 381.048 627.325 364.843 611.135C348.639 594.93 335.927 576.082 327.047 555.069C317.856 533.322 313.189 510.231 313.189 486.419C313.189 462.607 317.856 439.517 327.047 417.769C335.927 396.771 348.653 377.908 364.843 361.704C381.034 345.499 399.897 332.787 420.909 323.907C442.656 314.716 465.747 310.05 489.559 310.05C513.371 310.05 536.462 314.716 558.209 323.907C579.207 332.787 598.07 345.513 614.275 361.704C630.465 377.908 643.191 396.757 652.071 417.769C661.262 439.517 665.928 462.607 665.928 486.419C665.928 510.231 661.262 533.322 652.071 555.069C643.191 576.068 630.465 594.93 614.275 611.135C598.07 627.34 579.221 640.051 558.209 648.931C536.462 658.122 513.371 662.789 489.559 662.789ZM489.559 310.276C465.775 310.276 442.713 314.928 420.994 324.119C400.024 332.985 381.175 345.697 364.999 361.873C348.823 378.05 336.125 396.884 327.245 417.868C318.054 439.587 313.402 462.65 313.402 486.433C313.402 510.217 318.054 533.28 327.245 554.999C336.111 575.969 348.823 594.817 364.999 610.994C381.175 627.17 400.01 639.868 420.994 648.748C442.713 657.939 465.775 662.591 489.559 662.591C513.343 662.591 536.405 657.939 558.124 648.748C579.094 639.882 597.943 627.17 614.105 610.994C630.281 594.817 642.979 575.983 651.859 554.999C661.05 533.28 665.702 510.217 665.702 486.433C665.702 462.65 661.05 439.587 651.859 417.868C642.993 396.898 630.281 378.05 614.105 361.873C597.929 345.697 579.094 332.999 558.124 324.119C536.405 314.928 513.343 310.276 489.559 310.276Z"
    fill="#626364"
  ></path>
  <path
    d="M489.558 649.893C467.485 649.893 446.077 645.566 425.928 637.04C406.457 628.81 388.98 617.017 373.963 602.001C358.946 586.984 347.167 569.507 338.924 550.036C330.397 529.886 326.07 508.478 326.07 486.405C326.07 464.333 330.397 442.924 338.924 422.775C347.153 403.304 358.946 385.827 373.963 370.81C388.98 355.793 406.457 344.015 425.928 335.771C446.077 327.244 467.5 322.917 489.558 322.917C511.617 322.917 533.039 327.244 553.189 335.771C572.659 344 590.137 355.793 605.153 370.81C620.17 385.827 631.949 403.304 640.193 422.775C648.719 442.924 653.046 464.347 653.046 486.405C653.046 508.464 648.719 529.886 640.193 550.036C631.963 569.507 620.17 586.984 605.153 602.001C590.137 617.017 572.659 628.796 553.189 637.04C533.039 645.566 511.631 649.893 489.558 649.893ZM489.558 323.144C467.514 323.144 446.134 327.456 426.013 335.969C406.57 344.184 389.107 355.963 374.118 370.951C359.13 385.94 347.351 403.403 339.122 422.846C330.609 442.967 326.297 464.361 326.297 486.391C326.297 508.421 330.609 529.815 339.122 549.937C347.337 569.379 359.116 586.842 374.118 601.831C389.107 616.819 406.57 628.598 426.013 636.828C446.134 645.34 467.528 649.653 489.558 649.653C511.588 649.653 532.982 645.34 553.104 636.828C572.546 628.598 590.009 616.834 604.998 601.831C619.986 586.842 631.765 569.379 639.995 549.937C648.507 529.801 652.82 508.421 652.82 486.391C652.82 464.361 648.507 442.967 639.995 422.846C631.765 403.403 620 385.94 604.998 370.951C590.009 355.963 572.546 344.184 553.104 335.969C532.968 327.456 511.588 323.144 489.558 323.144Z"
    fill="#626364"
  ></path>
  <path
    d="M489.558 636.997C469.225 636.997 449.514 633.01 430.948 625.162C413.018 617.583 396.912 606.723 383.083 592.894C369.254 579.065 358.395 562.96 350.816 545.03C342.968 526.464 338.98 506.739 338.98 486.419C338.98 466.1 342.968 446.374 350.816 427.809C358.395 409.879 369.254 393.773 383.083 379.944C396.912 366.115 413.018 355.256 430.948 347.677C449.514 339.829 469.239 335.841 489.558 335.841C509.878 335.841 529.603 339.829 548.169 347.677C566.099 355.256 582.204 366.115 596.033 379.944C609.862 393.773 620.722 409.879 628.301 427.809C636.149 446.374 640.136 466.1 640.136 486.419C640.136 506.739 636.149 526.464 628.301 545.03C620.722 562.96 609.862 579.065 596.033 592.894C582.204 606.723 566.099 617.583 548.169 625.162C529.603 633.01 509.878 636.997 489.558 636.997ZM489.558 336.025C469.253 336.025 449.556 339.999 431.018 347.846C413.117 355.425 397.026 366.271 383.211 380.072C369.396 393.886 358.55 409.964 350.985 427.879C343.138 446.417 339.164 466.114 339.164 486.419C339.164 506.724 343.138 526.422 350.985 544.959C358.565 562.875 369.41 578.952 383.211 592.767C397.026 606.582 413.103 617.427 431.018 624.992C449.556 632.84 469.253 636.813 489.558 636.813C509.864 636.813 529.561 632.84 548.098 624.992C566.014 617.413 582.091 606.568 595.906 592.767C609.721 578.952 620.566 562.875 628.131 544.959C635.979 526.422 639.952 506.724 639.952 486.419C639.952 466.114 635.979 446.417 628.131 427.879C620.552 409.978 609.721 393.886 595.906 380.072C582.091 366.257 566.014 355.411 548.098 347.846C529.561 339.999 509.864 336.025 489.558 336.025Z"
    fill="#626364"
  ></path>
  <path
    d="M489.558 624.116C470.964 624.116 452.935 620.482 435.967 613.299C419.565 606.37 404.845 596.444 392.204 583.788C379.562 571.147 369.636 556.413 362.693 540.025C355.51 523.056 351.876 505.014 351.876 486.434C351.876 467.854 355.524 449.811 362.693 432.843C369.622 416.44 379.562 401.72 392.204 389.079C404.845 376.438 419.579 366.511 435.967 359.569C452.949 352.385 470.978 348.751 489.558 348.751C508.138 348.751 526.181 352.4 543.149 359.569C559.552 366.497 574.271 376.438 586.913 389.079C599.554 401.72 609.48 416.454 616.423 432.843C623.606 449.825 627.24 467.854 627.24 486.434C627.24 505.014 623.606 523.056 616.423 540.025C609.494 556.427 599.568 571.147 586.913 583.788C574.271 596.429 559.537 606.356 543.149 613.299C526.181 620.482 508.138 624.116 489.558 624.116ZM489.558 348.907C470.992 348.907 452.978 352.541 436.024 359.71C419.649 366.639 404.944 376.551 392.317 389.178C379.69 401.805 369.777 416.511 362.849 432.885C355.68 449.839 352.046 467.854 352.046 486.419C352.046 504.985 355.68 522.986 362.849 539.94C369.777 556.314 379.69 571.02 392.317 583.647C404.944 596.274 419.649 606.2 436.024 613.115C452.978 620.284 470.992 623.918 489.558 623.918C508.124 623.918 526.124 620.284 543.078 613.115C559.453 606.186 574.158 596.274 586.785 583.647C599.413 571.02 609.325 556.314 616.253 539.94C623.422 522.986 627.056 504.971 627.056 486.419C627.056 467.868 623.422 449.839 616.253 432.885C609.325 416.511 599.413 401.805 586.785 389.178C574.158 376.551 559.453 366.639 543.078 359.71C526.124 352.541 508.11 348.907 489.558 348.907Z"
    fill="#626364"
  ></path>
  <path
    d="M489.558 611.22C472.703 611.22 456.371 607.926 440.973 601.407C426.112 595.115 412.763 586.122 401.31 574.654C389.842 563.186 380.849 549.852 374.571 534.991C368.067 519.606 364.758 503.261 364.758 486.42C364.758 469.579 368.052 453.233 374.571 437.834C380.863 422.973 389.856 409.625 401.31 398.171C412.778 386.704 426.112 377.711 440.973 371.432C456.357 364.928 472.703 361.619 489.558 361.619C506.413 361.619 522.745 364.914 538.13 371.432C552.991 377.725 566.339 386.718 577.793 398.171C589.26 409.639 598.253 422.973 604.531 437.834C611.036 453.219 614.331 469.565 614.331 486.42C614.331 503.275 611.036 519.606 604.531 534.991C598.239 549.852 589.246 563.2 577.793 574.654C566.339 586.122 552.991 595.115 538.13 601.407C522.745 607.911 506.399 611.22 489.558 611.22ZM489.558 361.775C472.732 361.775 456.414 365.069 441.044 371.574C426.197 377.852 412.877 386.845 401.423 398.284C389.97 409.738 380.991 423.058 374.712 437.905C368.208 453.275 364.913 469.593 364.913 486.42C364.913 503.246 368.208 519.564 374.712 534.934C380.991 549.781 389.984 563.101 401.423 574.555C412.862 586.008 426.197 594.987 441.044 601.266C456.414 607.756 472.732 611.065 489.558 611.065C506.385 611.065 522.703 607.77 538.073 601.266C552.92 594.987 566.24 585.994 577.694 574.555C589.133 563.116 598.126 549.781 604.404 534.934C610.895 519.564 614.203 503.246 614.203 486.42C614.203 469.593 610.909 453.275 604.404 437.905C598.126 423.058 589.133 409.738 577.694 398.284C566.254 386.845 552.92 377.852 538.073 371.574C522.703 365.069 506.385 361.775 489.558 361.775Z"
    fill="#626364"
  ></path>
  <path
    d="M489.559 598.324C474.457 598.324 459.794 595.369 445.993 589.529C432.673 583.887 420.696 575.827 410.416 565.547C400.137 555.268 392.077 543.305 386.435 529.971C380.595 516.17 377.64 501.521 377.64 486.419C377.64 471.318 380.595 456.654 386.435 442.854C392.077 429.534 400.137 417.557 410.416 407.277C420.696 396.997 432.659 388.938 445.993 383.296C459.794 377.456 474.443 374.5 489.559 374.5C504.674 374.5 519.323 377.456 533.11 383.296C546.43 388.938 558.407 396.997 568.687 407.277C578.966 417.557 587.026 429.52 592.668 442.854C598.508 456.654 601.463 471.304 601.463 486.419C601.463 501.535 598.508 516.184 592.668 529.971C587.026 543.291 578.966 555.268 568.687 565.547C558.407 575.827 546.444 583.887 533.11 589.529C519.309 595.369 504.66 598.324 489.559 598.324ZM489.559 374.656C474.471 374.656 459.836 377.611 446.049 383.437C432.744 389.065 420.795 397.125 410.529 407.39C400.264 417.656 392.204 429.604 386.576 442.91C380.75 456.683 377.795 471.318 377.795 486.419C377.795 501.521 380.75 516.142 386.576 529.914C392.204 543.22 400.264 555.169 410.529 565.434C420.795 575.7 432.744 583.76 446.049 589.388C459.822 595.213 474.471 598.169 489.559 598.169C504.646 598.169 519.281 595.213 533.053 589.388C546.359 583.76 558.308 575.7 568.573 565.434C578.839 555.169 586.899 543.22 592.527 529.914C598.352 516.142 601.308 501.507 601.308 486.419C601.308 471.332 598.352 456.697 592.527 442.91C586.899 429.604 578.839 417.656 568.573 407.39C558.308 397.125 546.359 389.065 533.053 383.437C519.281 377.611 504.646 374.656 489.559 374.656Z"
    fill="#626364"
  ></path>
  <path
    d="M489.558 585.429C476.196 585.429 463.229 582.813 451.012 577.652C439.22 572.66 428.629 565.519 419.537 556.427C410.444 547.335 403.304 536.744 398.312 524.951C393.151 512.748 390.535 499.782 390.535 486.42C390.535 473.057 393.151 460.091 398.312 447.874C403.304 436.081 410.444 425.49 419.537 416.398C428.629 407.306 439.22 400.165 451.012 395.174C463.215 390.012 476.182 387.396 489.558 387.396C502.935 387.396 515.887 390.012 528.09 395.174C539.883 400.165 550.474 407.306 559.566 416.398C568.658 425.49 575.799 436.081 580.776 447.874C585.937 460.077 588.553 473.043 588.553 486.42C588.553 499.796 585.937 512.748 580.776 524.951C575.785 536.744 568.644 547.335 559.566 556.427C550.474 565.519 539.883 572.66 528.09 577.652C515.887 582.813 502.921 585.429 489.558 585.429ZM489.558 387.538C476.21 387.538 463.258 390.154 451.069 395.315C439.29 400.292 428.713 407.433 419.635 416.511C410.558 425.589 403.431 436.166 398.439 447.944C393.278 460.133 390.662 473.085 390.662 486.434C390.662 499.782 393.278 512.734 398.439 524.923C403.417 536.702 410.558 547.279 419.635 556.357C428.713 565.434 439.29 572.561 451.069 577.553C463.258 582.714 476.21 585.33 489.558 585.33C502.907 585.33 515.859 582.714 528.048 577.553C539.826 572.575 550.403 565.449 559.481 556.357C568.559 547.279 575.686 536.702 580.677 524.923C585.838 512.734 588.454 499.782 588.454 486.434C588.454 473.085 585.838 460.133 580.677 447.944C575.7 436.166 568.559 425.589 559.481 416.511C550.403 407.433 539.826 400.306 528.048 395.315C515.859 390.154 502.907 387.538 489.558 387.538Z"
    fill="#626364"
  ></path>
  <path
    d="M489.559 572.533C477.936 572.533 466.652 570.256 456.033 565.759C445.781 561.418 436.562 555.211 428.658 547.307C420.753 539.402 414.546 530.183 410.205 519.931C405.708 509.312 403.432 498.042 403.432 486.405C403.432 474.768 405.708 463.498 410.205 452.879C414.546 442.627 420.753 433.408 428.658 425.504C436.562 417.599 445.781 411.392 456.033 407.051C466.652 402.554 477.922 400.278 489.559 400.278C501.196 400.278 512.466 402.554 523.085 407.051C533.337 411.392 542.542 417.599 550.46 425.504C558.379 433.408 564.586 442.627 568.913 452.879C573.41 463.498 575.686 474.768 575.686 486.405C575.686 498.042 573.41 509.312 568.913 519.931C564.572 530.183 558.365 539.402 550.46 547.307C542.556 555.211 533.337 561.433 523.085 565.759C512.466 570.256 501.182 572.533 489.559 572.533ZM489.559 400.405C477.95 400.405 466.68 402.682 456.075 407.164C445.838 411.491 436.633 417.698 428.742 425.603C420.838 433.507 414.645 442.698 410.304 452.936C405.821 463.541 403.545 474.796 403.545 486.419C403.545 498.042 405.821 509.298 410.304 519.889C414.631 530.126 420.838 539.332 428.742 547.222C436.647 555.126 445.838 561.319 456.075 565.66C466.68 570.143 477.936 572.419 489.559 572.419C501.182 572.419 512.438 570.143 523.029 565.66C533.266 561.334 542.471 555.126 550.361 547.222C558.252 539.317 564.459 530.126 568.786 519.889C573.268 509.284 575.545 498.028 575.545 486.419C575.545 474.81 573.268 463.541 568.786 452.936C564.459 442.698 558.252 433.493 550.361 425.603C542.457 417.698 533.266 411.505 523.029 407.164C512.424 402.682 501.168 400.405 489.559 400.405Z"
    fill="#626364"
  ></path>
  <path
    d="M489.559 560.697C479.533 560.697 469.805 558.732 460.642 554.858C451.79 551.11 443.858 545.765 437.028 538.936C430.213 532.106 424.854 524.174 421.106 515.322C417.232 506.159 415.267 496.431 415.267 486.405C415.267 476.38 417.232 466.652 421.106 457.489C424.854 448.637 430.199 440.705 437.028 433.875C443.844 427.059 451.79 421.7 460.642 417.953C469.805 414.079 479.533 412.113 489.559 412.113C499.584 412.113 509.312 414.079 518.475 417.953C527.313 421.7 535.259 427.045 542.089 433.875C548.905 440.69 554.264 448.637 558.011 457.489C561.885 466.652 563.851 476.38 563.851 486.405C563.851 496.431 561.885 506.159 558.011 515.322C554.278 524.159 548.919 532.106 542.089 538.936C535.259 545.751 527.327 551.11 518.475 554.858C509.312 558.732 499.584 560.697 489.559 560.697ZM489.559 412.241C479.548 412.241 469.833 414.206 460.685 418.066C451.847 421.799 443.914 427.158 437.099 433.96C430.283 440.775 424.938 448.708 421.205 457.545C417.331 466.694 415.38 476.408 415.38 486.419C415.38 496.431 417.345 506.145 421.205 515.294C424.938 524.131 430.283 532.064 437.099 538.865C443.914 545.681 451.847 551.026 460.685 554.759C469.833 558.633 479.548 560.584 489.559 560.584C499.57 560.584 509.284 558.619 518.433 554.759C527.27 551.026 535.203 545.681 542.004 538.865C548.82 532.05 554.165 524.117 557.898 515.294C561.758 506.145 563.724 496.431 563.724 486.419C563.724 476.408 561.758 466.694 557.898 457.545C554.165 448.708 548.806 440.775 542.004 433.96C535.189 427.144 527.256 421.799 518.433 418.066C509.284 414.192 499.57 412.241 489.559 412.241Z"
    fill="#626364"
  ></path>
  <path
    d="M489.559 548.848C481.131 548.848 472.958 547.193 465.252 543.941C457.814 540.802 451.14 536.291 445.399 530.565C439.658 524.838 435.162 518.15 432.023 510.712C428.771 503.02 427.116 494.833 427.116 486.405C427.116 477.978 428.771 469.805 432.023 462.098C435.162 454.661 439.673 447.986 445.399 442.246C451.14 436.505 457.814 432.008 465.252 428.869C472.944 425.617 481.131 423.962 489.559 423.962C497.986 423.962 506.159 425.617 513.866 428.869C521.303 432.008 527.978 436.519 533.718 442.246C539.445 447.986 543.956 454.661 547.095 462.098C550.347 469.79 552.002 477.978 552.002 486.405C552.002 494.833 550.347 503.006 547.095 510.712C543.956 518.15 539.445 524.824 533.718 530.565C527.992 536.291 521.303 540.802 513.866 543.941C506.174 547.193 497.986 548.848 489.559 548.848ZM489.559 424.061C481.146 424.061 472.973 425.716 465.294 428.968C457.871 432.107 451.197 436.604 445.47 442.33C439.743 448.057 435.247 454.731 432.108 462.155C428.855 469.847 427.201 478.006 427.201 486.433C427.201 494.861 428.855 503.02 432.108 510.698C435.247 518.121 439.743 524.795 445.47 530.522C451.197 536.249 457.871 540.746 465.294 543.885C472.987 547.137 481.146 548.777 489.559 548.777C497.972 548.777 506.145 547.123 513.837 543.885C521.261 540.746 527.935 536.249 533.662 530.522C539.389 524.795 543.885 518.121 547.024 510.698C550.276 503.006 551.917 494.847 551.917 486.433C551.917 478.02 550.262 469.847 547.024 462.155C543.885 454.731 539.389 448.057 533.662 442.33C527.935 436.604 521.261 432.107 513.837 428.968C506.145 425.716 497.986 424.061 489.559 424.061Z"
    fill="#626364"
  ></path>
  <path
    d="M489.559 537.013C482.729 537.013 476.098 535.669 469.862 533.039C463.838 530.494 458.423 526.846 453.785 522.194C449.133 517.542 445.484 512.14 442.939 506.117C440.295 499.881 438.966 493.249 438.966 486.419C438.966 479.59 440.309 472.958 442.939 466.722C445.484 460.699 449.133 455.283 453.785 450.631C458.437 445.979 463.838 442.331 469.862 439.785C476.098 437.141 482.729 435.812 489.559 435.812C496.389 435.812 503.02 437.155 509.256 439.785C515.28 442.331 520.696 445.979 525.334 450.631C529.986 455.283 533.634 460.684 536.179 466.722C538.823 472.958 540.152 479.59 540.152 486.419C540.152 493.249 538.809 499.881 536.179 506.117C533.634 512.14 529.986 517.556 525.334 522.194C520.681 526.846 515.28 530.494 509.256 533.039C503.02 535.684 496.389 537.013 489.559 537.013ZM489.559 435.883C482.744 435.883 476.126 437.212 469.89 439.856C463.867 442.401 458.465 446.049 453.827 450.687C449.189 455.325 445.541 460.727 442.996 466.751C440.366 472.986 439.022 479.604 439.022 486.419C439.022 493.235 440.352 499.853 442.996 506.088C445.541 512.112 449.189 517.514 453.827 522.151C458.465 526.789 463.867 530.438 469.89 532.983C476.126 535.627 482.729 536.956 489.559 536.956C496.389 536.956 502.992 535.627 509.228 532.983C515.252 530.438 520.653 526.789 525.291 522.151C529.929 517.514 533.577 512.112 536.122 506.088C538.752 499.853 540.096 493.249 540.096 486.419C540.096 479.59 538.752 472.986 536.122 466.751C533.577 460.727 529.929 455.325 525.291 450.687C520.653 446.049 515.252 442.401 509.228 439.856C502.992 437.226 496.389 435.883 489.559 435.883Z"
    fill="#626364"
  ></path>
  <path
    d="M489.559 525.177C484.327 525.177 479.251 524.145 474.472 522.137C469.862 520.186 465.705 517.386 462.156 513.837C458.592 510.274 455.807 506.13 453.856 501.521C451.834 496.741 450.815 491.665 450.815 486.433C450.815 481.202 451.834 476.125 453.856 471.346C455.807 466.736 458.607 462.579 462.156 459.03C465.719 455.467 469.862 452.681 474.472 450.73C479.251 448.708 484.327 447.689 489.559 447.689C494.791 447.689 499.867 448.708 504.647 450.73C509.256 452.681 513.4 455.481 516.963 459.03C520.526 462.593 523.312 466.736 525.263 471.346C527.285 476.125 528.303 481.202 528.303 486.433C528.303 491.665 527.271 496.741 525.263 501.521C523.312 506.13 520.512 510.274 516.963 513.837C513.4 517.4 509.256 520.186 504.647 522.137C499.867 524.159 494.791 525.177 489.559 525.177ZM489.559 447.718C484.327 447.718 479.265 448.736 474.5 450.758C469.89 452.709 465.747 455.495 462.198 459.058C458.649 462.607 455.849 466.75 453.898 471.36C451.876 476.125 450.858 481.202 450.858 486.419C450.858 491.637 451.876 496.713 453.898 501.478C455.849 506.088 458.635 510.231 462.198 513.78C465.747 517.329 469.89 520.129 474.5 522.081C479.265 524.103 484.342 525.121 489.559 525.121C494.777 525.121 499.853 524.103 504.618 522.081C509.228 520.129 513.371 517.344 516.92 513.78C520.47 510.217 523.269 506.088 525.221 501.478C527.243 496.713 528.261 491.637 528.261 486.419C528.261 481.202 527.243 476.125 525.221 471.36C523.269 466.75 520.484 462.607 516.92 459.058C513.371 455.509 509.228 452.709 504.618 450.758C499.853 448.736 494.777 447.718 489.559 447.718Z"
    fill="#626364"
  ></path>
  <path
    d="M489.559 513.328C485.924 513.328 482.404 512.621 479.081 511.207C475.871 509.849 473 507.912 470.526 505.438C468.051 502.963 466.114 500.093 464.757 496.883C463.357 493.56 462.636 490.039 462.636 486.405C462.636 482.771 463.343 479.25 464.757 475.927C466.114 472.718 468.051 469.847 470.526 467.373C473 464.898 475.871 462.961 479.081 461.603C482.404 460.204 485.924 459.482 489.559 459.482C493.193 459.482 496.713 460.189 500.036 461.603C503.246 462.961 506.117 464.898 508.591 467.373C511.066 469.847 513.003 472.718 514.36 475.927C515.76 479.25 516.481 482.771 516.481 486.405C516.481 490.039 515.774 493.56 514.36 496.883C513.003 500.093 511.066 502.963 508.591 505.438C506.117 507.912 503.246 509.849 500.036 511.207C496.713 512.607 493.193 513.328 489.559 513.328ZM489.559 459.539C485.924 459.539 482.404 460.246 479.095 461.646C475.899 463.003 473.015 464.94 470.554 467.401C468.08 469.875 466.142 472.746 464.799 475.941C463.399 479.25 462.692 482.771 462.692 486.405C462.692 490.039 463.399 493.546 464.799 496.869C466.157 500.065 468.094 502.949 470.554 505.409C473.029 507.87 475.899 509.821 479.095 511.164C482.404 512.564 485.924 513.271 489.559 513.271C493.193 513.271 496.699 512.564 500.022 511.164C503.218 509.807 506.102 507.87 508.563 505.409C511.023 502.935 512.96 500.065 514.318 496.869C515.718 493.56 516.425 490.039 516.425 486.405C516.425 482.771 515.718 479.25 514.318 475.941C512.96 472.746 511.023 469.861 508.563 467.401C506.088 464.926 503.218 462.989 500.022 461.646C496.713 460.246 493.193 459.539 489.559 459.539Z"
    fill="#626364"
  ></path>
  <path
    d="M489.559 501.493C487.523 501.493 485.557 501.097 483.691 500.305C481.895 499.542 480.283 498.453 478.897 497.081C477.511 495.695 476.423 494.083 475.673 492.288C474.881 490.421 474.485 488.456 474.485 486.42C474.485 484.383 474.881 482.404 475.673 480.551C476.437 478.756 477.511 477.144 478.897 475.758C480.283 474.372 481.895 473.283 483.691 472.534C485.543 471.742 487.523 471.346 489.559 471.346C491.595 471.346 493.56 471.742 495.427 472.534C497.223 473.298 498.835 474.372 500.22 475.758C501.606 477.144 502.695 478.756 503.444 480.551C504.236 482.404 504.632 484.383 504.632 486.42C504.632 488.456 504.236 490.421 503.444 492.288C502.681 494.083 501.592 495.695 500.22 497.081C498.835 498.467 497.223 499.556 495.427 500.305C493.574 501.097 491.595 501.493 489.559 501.493ZM489.559 471.36C487.523 471.36 485.557 471.756 483.705 472.548C481.909 473.312 480.297 474.386 478.925 475.772C477.54 477.158 476.465 478.77 475.701 480.551C474.91 482.404 474.514 484.383 474.514 486.405C474.514 488.427 474.91 490.407 475.701 492.259C476.465 494.055 477.54 495.653 478.925 497.039C480.311 498.424 481.923 499.499 483.705 500.263C485.557 501.055 487.537 501.45 489.559 501.45C491.581 501.45 493.56 501.055 495.413 500.263C497.208 499.499 498.82 498.424 500.192 497.039C501.578 495.653 502.667 494.041 503.416 492.259C504.208 490.407 504.604 488.427 504.604 486.405C504.604 484.383 504.208 482.404 503.416 480.551C502.652 478.756 501.578 477.144 500.192 475.772C498.806 474.386 497.194 473.312 495.413 472.548C493.56 471.756 491.581 471.36 489.559 471.36Z"
    fill="#626364"
  ></path>
  <path
    d="M504.617 486.42C504.617 494.734 497.873 501.479 489.558 501.479C481.244 501.479 474.499 494.734 474.499 486.42C474.499 478.105 481.244 471.36 489.558 471.36C497.873 471.36 504.617 478.105 504.617 486.42Z"
    fill="url(#paint0_radial_35_3307)"
  ></path>
  <path
    d="M489.558 502.242C480.834 502.242 473.735 495.144 473.735 486.419C473.735 477.695 480.834 470.597 489.558 470.597C498.283 470.597 505.381 477.695 505.381 486.419C505.381 495.144 498.283 502.242 489.558 502.242ZM489.558 472.11C481.668 472.11 475.248 478.529 475.248 486.419C475.248 494.31 481.668 500.715 489.558 500.715C497.448 500.715 503.854 494.295 503.854 486.419C503.854 478.543 497.434 472.11 489.558 472.11Z"
    fill="#1B1817"
  ></path>
  <path
    d="M498.17 486.419C498.17 491.17 494.31 495.031 489.559 495.031C484.808 495.031 480.947 491.185 480.947 486.419C480.947 481.654 484.808 477.808 489.559 477.808C494.31 477.808 498.17 481.668 498.17 486.419Z"
    fill="white"
  ></path>
  <circle cx="489" cy="486" r="61" fill="#FFA500"></circle>
  <defs>
    <radialGradient
      id="paint0_radial_35_3307"
      cx="0"
      cy="0"
      r="1"
      gradientUnits="userSpaceOnUse"
      gradientTransform="translate(489.558 486.42) scale(15.0592)"
    >
      <stop stop-color="white"></stop>
      <stop offset="0.1" stop-color="#F8F8F8"></stop>
      <stop offset="0.23" stop-color="#E6E6E6"></stop>
      <stop offset="0.39" stop-color="#C9C8C8"></stop>
      <stop offset="0.56" stop-color="#A09E9E"></stop>
      <stop offset="0.75" stop-color="#6B6968"></stop>
      <stop offset="0.95" stop-color="#2C2928"></stop>
      <stop offset="1" stop-color="#1B1817"></stop>
    </radialGradient>
  </defs>
</svg>