<svg width="121" height="121" viewBox="0 0 121 121" fill="none" xmlns="http://www.w3.org/2000/svg">
<g clip-path="url(#clip0_59_1253)">
<path d="M102.731 102.732C126.055 79.408 126.055 41.592 102.731 18.2677C79.4069 -5.05657 41.5908 -5.05657 18.2665 18.2677C-5.05777 41.5919 -5.05777 79.4081 18.2665 102.732C41.5908 126.057 79.4069 126.057 102.731 102.732Z" fill="#1B1817" fill-opacity="0.8"/>
<path d="M60.5 121C52.3331 121 44.409 119.399 36.9502 116.246C29.7457 113.2 23.2752 108.836 17.7208 103.282C12.1636 97.7277 7.80272 91.2572 4.75677 84.0527C1.601 76.5909 0 68.6668 0 60.5C0 52.3332 1.601 44.4091 4.75388 36.9502C7.79983 29.7457 12.1636 23.2752 17.718 17.7208C23.2752 12.1636 29.7428 7.80272 36.9473 4.75677C44.409 1.601 52.3331 0 60.5 0C68.6668 0 76.5909 1.601 84.0498 4.75388C91.2543 7.79983 97.7248 12.1636 103.279 17.718C108.836 23.2752 113.197 29.7428 116.243 36.9473C119.399 44.4062 120.997 52.3303 120.997 60.4971C120.997 68.664 119.396 76.5881 116.243 84.0469C113.197 91.2514 108.834 97.7219 103.279 103.276C97.7248 108.834 91.2543 113.194 84.0498 116.24C76.5909 119.396 68.6668 120.994 60.5 120.994V121ZM60.5 1.55187C52.5412 1.55187 44.8223 3.10953 37.5542 6.18438C30.5346 9.1523 24.2318 13.4033 18.8161 18.819C13.4033 24.2318 9.1523 30.5375 6.18149 37.5571C3.10664 44.8252 1.54898 52.5441 1.54898 60.5029C1.54898 68.4617 3.10664 76.1806 6.18149 83.4487C9.14941 90.4682 13.4005 96.7711 18.8161 102.187C24.2289 107.6 30.5346 111.851 37.5542 114.821C44.8223 117.896 52.5412 119.454 60.5 119.454C68.4588 119.454 76.1777 117.896 83.4458 114.821C90.4653 111.853 96.7682 107.602 102.184 102.187C107.597 96.774 111.848 90.4682 114.818 83.4487C117.893 76.1806 119.451 68.4617 119.451 60.5029C119.451 52.5441 117.893 44.8252 114.818 37.5571C111.851 30.5375 107.6 24.2347 102.184 18.819C96.7711 13.4062 90.4653 9.15519 83.4458 6.18438C76.1777 3.10953 68.4588 1.55187 60.5 1.55187Z" fill="#1B1817" fill-opacity="0.8"/>
<path d="M60.5004 120.263C52.4318 120.263 44.6059 118.682 37.2367 115.567C30.1189 112.556 23.7293 108.247 18.2414 102.759C12.7535 97.2709 8.44466 90.8785 5.43339 83.7636C2.31808 76.3943 0.737305 68.5685 0.737305 60.4999C0.737305 52.4313 2.31808 44.6055 5.43339 37.2362C8.44466 30.1184 12.7535 23.7288 18.2414 18.2409C23.7293 12.753 30.1218 8.44417 37.2367 5.4329C44.6059 2.31759 52.4318 0.736816 60.5004 0.736816C68.569 0.736816 76.3948 2.31759 83.7612 5.4329C90.879 8.44128 97.2685 12.753 102.756 18.2409C108.244 23.7288 112.553 30.1213 115.564 37.2362C118.68 44.6055 120.261 52.4313 120.261 60.4999C120.261 68.5685 118.68 76.3943 115.564 83.7636C112.553 90.8814 108.244 97.2709 102.756 102.759C97.2685 108.247 90.8761 112.556 83.7612 115.567C76.3948 118.682 68.5661 120.263 60.5004 120.263ZM60.5004 0.814844C52.4433 0.814844 44.6262 2.39273 37.2685 5.50515C30.1622 8.51064 23.7785 12.8137 18.2963 18.2958C12.8142 23.778 8.51113 30.1589 5.50564 37.268C2.39322 44.6257 0.815332 52.4429 0.815332 60.4999C0.815332 68.5569 2.39322 76.3741 5.50564 83.7318C8.51113 90.838 12.8142 97.2218 18.2963 102.704C23.7785 108.186 30.1622 112.489 37.2685 115.495C44.6262 118.607 52.4433 120.185 60.5004 120.185C68.5574 120.185 76.3746 118.607 83.7323 115.495C90.8385 112.489 97.2223 108.186 102.704 102.704C108.187 97.2218 112.49 90.8409 115.495 83.7318C118.608 76.3741 120.185 68.5569 120.185 60.4999C120.185 52.4429 118.608 44.6257 115.495 37.268C112.49 30.1618 108.187 23.778 102.704 18.2958C97.2223 12.8137 90.8414 8.51064 83.7323 5.50515C76.3746 2.39273 68.5574 0.814844 60.5004 0.814844Z" fill="#626364"/>
<path d="M60.5005 117.627C52.7874 117.627 45.3055 116.116 38.2628 113.136C31.46 110.258 25.3507 106.14 20.1027 100.895C14.8575 95.6494 10.7365 89.5401 7.86106 82.7373C4.88157 75.6946 3.37305 68.2127 3.37305 60.4996C3.37305 52.7864 4.88446 45.3045 7.86106 38.2618C10.7394 31.459 14.8575 25.3497 20.1027 20.1017C25.3478 14.8565 31.46 10.7355 38.2628 7.86008C45.3055 4.8806 52.7874 3.37207 60.5005 3.37207C68.2137 3.37207 75.6927 4.88349 82.7383 7.86008C89.5411 10.7384 95.6504 14.8565 100.896 20.1017C106.144 25.3468 110.262 31.459 113.137 38.2618C116.117 45.3045 117.628 52.7864 117.628 60.4996C117.628 68.2127 116.117 75.6946 113.137 82.7373C110.259 89.5401 106.141 95.6494 100.896 100.895C95.6504 106.14 89.5411 110.261 82.7383 113.136C75.6956 116.116 68.2137 117.627 60.5005 117.627ZM60.5005 3.44432C52.799 3.44432 45.3257 4.95284 38.2917 7.92944C31.4975 10.802 25.397 14.9172 20.1576 20.1566C14.9182 25.396 10.803 31.4966 7.93041 38.2907C4.95671 45.3247 3.44818 52.7951 3.44818 60.4996C3.44818 68.204 4.95671 75.6744 7.93041 82.7084C10.803 89.5026 14.9182 95.6031 20.1576 100.843C25.397 106.082 31.5004 110.194 38.2917 113.07C45.3257 116.043 52.7961 117.552 60.5005 117.552C68.205 117.552 75.6754 116.043 82.7094 113.07C89.5035 110.194 95.6041 106.082 100.844 100.843C106.083 95.6031 110.198 89.4997 113.071 82.7084C116.044 75.6744 117.553 68.2011 117.553 60.4996C117.553 52.798 116.044 45.3247 113.071 38.2907C110.198 31.4966 106.083 25.396 100.844 20.1566C95.6041 14.9172 89.5007 10.802 82.7094 7.92944C75.6754 4.95573 68.2021 3.44432 60.5005 3.44432Z" fill="#626364"/>
<path d="M60.4997 114.992C53.142 114.992 46.0068 113.549 39.2878 110.709C32.8 107.963 26.9711 104.036 21.9658 99.0306C16.9605 94.0253 13.0331 88.1993 10.2877 81.7086C7.44694 74.9896 6.00488 67.8544 6.00488 60.4967C6.00488 53.1391 7.44694 46.0039 10.2877 39.2849C13.0331 32.7971 16.9605 26.9682 21.9658 21.9629C26.9711 16.9576 32.7971 13.0302 39.2878 10.2848C46.0068 7.44401 53.142 6.00195 60.4997 6.00195C67.8574 6.00195 74.9925 7.44401 81.7115 10.2848C88.1993 13.0302 94.0283 16.9576 99.0336 21.9629C104.039 26.9682 107.966 32.7942 110.712 39.2849C113.552 46.0039 114.994 53.1391 114.994 60.4967C114.994 67.8544 113.552 74.9896 110.712 81.7086C107.966 88.1964 104.039 94.0253 99.0336 99.0306C94.0283 104.036 88.2022 107.963 81.7115 110.709C74.9925 113.549 67.8574 114.992 60.4997 114.992ZM60.4997 6.07709C53.1536 6.07709 46.0242 7.51626 39.3167 10.3541C32.8376 13.0938 27.0173 17.0182 22.0178 22.0178C17.0183 27.0144 13.0967 32.8346 10.3542 39.3167C7.5163 46.027 6.07713 53.1535 6.07713 60.4996C6.07713 67.8458 7.5163 74.9751 10.3542 81.6826C13.0938 88.1646 17.0183 93.982 22.0178 98.9815C27.0144 103.978 32.8347 107.903 39.3167 110.645C46.0271 113.483 53.1536 114.922 60.4997 114.922C67.8458 114.922 74.9723 113.483 81.6826 110.645C88.1647 107.903 93.982 103.981 98.9815 98.9815C103.978 93.9849 107.903 88.1646 110.645 81.6826C113.483 74.9722 114.922 67.8458 114.922 60.4996C114.922 53.1535 113.483 46.0241 110.645 39.3167C107.906 32.8375 103.981 27.0173 98.9815 22.0178C93.9849 17.0182 88.1647 13.0967 81.6826 10.3541C74.9723 7.51626 67.8458 6.07709 60.4997 6.07709Z" fill="#626364"/>
<path d="M60.4998 112.356C53.4976 112.356 46.7064 110.986 40.3139 108.281C34.1382 105.669 28.5925 101.929 23.8299 97.1668C19.0674 92.4043 15.3278 86.8585 12.7154 80.6828C10.0104 74.2904 8.64062 67.4991 8.64062 60.4969C8.64062 53.4947 10.0104 46.7034 12.7154 40.311C15.3278 34.1353 19.0674 28.5895 23.8299 23.827C28.5925 19.0644 34.1382 15.3249 40.3139 12.7125C46.7064 10.0075 53.4976 8.6377 60.4998 8.6377C67.5021 8.6377 74.2904 10.0075 80.6858 12.7125C86.8615 15.3249 92.4072 19.0644 97.1697 23.827C101.932 28.5895 105.672 34.1353 108.284 40.311C110.989 46.7034 112.359 53.4947 112.359 60.4969C112.359 67.4991 110.986 74.2875 108.284 80.6828C105.672 86.8585 101.932 92.4043 97.1697 97.1668C92.4072 101.929 86.8615 105.669 80.6858 108.281C74.2933 110.986 67.5021 112.356 60.4998 112.356ZM60.4998 8.70994C53.5092 8.70994 46.7266 10.0798 40.3399 12.7789C34.1729 15.3885 28.6329 19.1222 23.8791 23.879C19.1223 28.6358 15.3885 34.1728 12.779 40.3399C10.0798 46.7237 8.70998 53.5062 8.70998 60.4998C8.70998 67.4933 10.0798 74.273 12.779 80.6597C15.3885 86.8268 19.1223 92.3667 23.8791 97.1206C28.6358 101.877 34.1729 105.611 40.3399 108.218C46.7237 110.92 53.5063 112.287 60.4998 112.287C67.4934 112.287 74.2731 110.917 80.6598 108.218C86.8268 105.608 92.3667 101.874 97.1206 97.1206C101.877 92.3638 105.611 86.8268 108.218 80.6597C110.92 74.2759 112.287 67.4933 112.287 60.4998C112.287 53.5062 110.917 46.7265 108.218 40.3399C105.611 34.1728 101.874 28.6329 97.1206 23.879C92.3638 19.1222 86.8268 15.3885 80.6598 12.7789C74.276 10.0798 67.4934 8.70994 60.4998 8.70994Z" fill="#626364"/>
<path d="M60.5 109.72C53.8561 109.72 47.4088 108.42 41.34 105.854C35.4793 103.374 30.2139 99.8253 25.6941 95.3055C21.1743 90.7857 17.6255 85.5203 15.1459 79.6596C12.5797 73.5908 11.2764 67.1463 11.2764 60.4995C11.2764 53.8528 12.5768 47.4083 15.1459 41.3395C17.6255 35.4788 21.1743 30.2134 25.6941 25.6936C30.2139 21.1738 35.4793 17.625 41.34 15.1455C47.4088 12.5793 53.8532 11.2788 60.5 11.2788C67.1468 11.2788 73.5912 12.5793 79.66 15.1455C85.5207 17.625 90.7861 21.1738 95.3059 25.6936C99.8257 30.2134 103.375 35.4788 105.854 41.3395C108.42 47.4083 109.724 53.8528 109.724 60.4995C109.724 67.1463 108.423 73.5908 105.854 79.6596C103.375 85.5203 99.8257 90.7857 95.3059 95.3055C90.7861 99.8253 85.5207 103.374 79.66 105.854C73.5912 108.42 67.1468 109.72 60.5 109.72ZM60.5 11.3395C53.8648 11.3395 47.4261 12.64 41.366 15.2033C35.511 17.6799 30.2543 21.2229 25.7403 25.7399C21.2263 30.2539 17.6804 35.5106 15.2037 41.3655C12.6404 47.4256 11.3399 53.8643 11.3399 60.4995C11.3399 67.1347 12.6404 73.5734 15.2037 79.6335C17.6804 85.4885 21.2234 90.7452 25.7403 95.2592C30.2543 99.7732 35.511 103.319 41.366 105.796C47.4261 108.359 53.8648 109.66 60.5 109.66C67.1352 109.66 73.5739 108.359 79.634 105.796C85.4889 103.319 90.7457 99.7761 95.2597 95.2592C99.7737 90.7452 103.32 85.4885 105.793 79.6335C108.357 73.5734 109.657 67.1347 109.657 60.4995C109.657 53.8643 108.357 47.4256 105.793 41.3655C103.317 35.5106 99.7737 30.2539 95.2597 25.7399C90.7457 21.2258 85.4889 17.6799 79.634 15.2033C73.5739 12.64 67.1352 11.3395 60.5 11.3395Z" fill="#626364"/>
<path d="M60.5001 107.088C54.2117 107.088 48.1083 105.857 42.366 103.426C36.8174 101.08 31.8353 97.7215 27.5582 93.4416C23.2812 89.1617 19.9202 84.1824 17.5736 78.6338C15.1432 72.8915 13.9121 66.7881 13.9121 60.4997C13.9121 54.2112 15.1432 48.1078 17.5736 42.3656C19.9202 36.8169 23.2783 31.8348 27.5582 27.5577C31.8353 23.2807 36.8203 19.9197 42.366 17.5731C48.1083 15.1427 54.2117 13.9116 60.5001 13.9116C66.7886 13.9116 72.8891 15.1427 78.6342 17.5731C84.1829 19.9197 89.165 23.2778 93.4421 27.5577C97.722 31.8348 101.08 36.8198 103.427 42.3656C105.857 48.1078 107.088 54.2112 107.088 60.4997C107.088 66.7881 105.857 72.8886 103.427 78.6338C101.08 84.1824 97.722 89.1645 93.4421 93.4416C89.1621 97.7215 84.1829 101.08 78.6342 103.426C72.892 105.857 66.7886 107.088 60.5001 107.088ZM60.5001 13.9723C54.2175 13.9723 48.1256 15.2034 42.3892 17.628C36.8492 19.9717 31.8728 23.3269 27.6016 27.5982C23.3274 31.8723 19.9751 36.8458 17.6314 42.3858C15.2068 48.1222 13.9757 54.2141 13.9757 60.4968C13.9757 66.7794 15.2068 72.8713 17.6314 78.6078C19.9751 84.1477 23.3303 89.1241 27.6016 93.3982C31.8757 97.6724 36.8492 101.025 42.3892 103.368C48.1256 105.793 54.2175 107.024 60.5001 107.024C66.7828 107.024 72.8747 105.793 78.6111 103.368C84.1511 101.025 89.1275 97.6695 93.4016 93.3982C97.6758 89.1241 101.031 84.1506 103.372 78.6078C105.799 72.8713 107.027 66.7794 107.027 60.4968C107.027 54.2141 105.796 48.1222 103.372 42.3858C101.028 36.8458 97.6729 31.8694 93.4016 27.5982C89.1275 23.324 84.1539 19.9717 78.6111 17.628C72.8747 15.2005 66.7828 13.9723 60.5001 13.9723Z" fill="#626364"/>
<path d="M60.5003 104.452C54.5674 104.452 48.8107 103.291 43.3921 100.999C38.1585 98.7852 33.4567 95.615 29.4224 91.5807C25.3852 87.5435 22.2179 82.8446 20.0042 77.611C17.7125 72.1924 16.5508 66.4357 16.5508 60.5028C16.5508 54.5698 17.7125 48.8131 20.0042 43.3946C22.2179 38.161 25.3881 33.4591 29.4224 29.4248C33.4596 25.3876 38.1585 22.2203 43.3921 20.0067C48.8107 17.715 54.5674 16.5532 60.5003 16.5532C66.4333 16.5532 72.19 17.715 77.6085 20.0067C82.8421 22.2203 87.544 25.3905 91.5783 29.4248C95.6155 33.462 98.7828 38.161 100.996 43.3946C103.288 48.8131 104.45 54.5698 104.45 60.5028C104.45 66.4357 103.288 72.1924 100.996 77.611C98.7828 82.8446 95.6126 87.5464 91.5783 91.5807C87.5411 95.6179 82.8421 98.7852 77.6085 100.999C72.19 103.291 66.4333 104.452 60.5003 104.452ZM60.5003 16.6052C54.5732 16.6052 48.8252 17.767 43.4153 20.0558C38.1874 22.2666 33.4942 25.431 29.4628 29.4624C25.4314 33.4938 22.267 38.187 20.0562 43.4148C17.7674 48.8276 16.6057 54.5756 16.6057 60.4999C16.6057 66.4242 17.7674 72.1751 20.0562 77.585C22.267 82.8128 25.4314 87.506 29.4628 91.5374C33.4942 95.5688 38.1874 98.7332 43.4153 100.944C48.828 103.233 54.576 104.395 60.5003 104.395C66.4246 104.395 72.1755 103.233 77.5854 100.944C82.8132 98.7332 87.5064 95.5688 91.5378 91.5374C95.5692 87.506 98.7337 82.8128 100.944 77.585C103.233 72.1722 104.395 66.4242 104.395 60.4999C104.395 54.5756 103.233 48.8247 100.944 43.4148C98.7337 38.187 95.5692 33.4938 91.5378 29.4624C87.5064 25.431 82.8132 22.2666 77.5854 20.0558C72.1726 17.767 66.4246 16.6052 60.5003 16.6052Z" fill="#626364"/>
<path d="M60.5004 101.817C54.9229 101.817 49.513 100.724 44.4181 98.5714C39.4966 96.4907 35.078 93.5112 31.2836 89.7168C27.4891 85.9224 24.5096 81.5037 22.4289 76.5822C20.273 71.4902 19.1807 66.0774 19.1807 60.4999C19.1807 54.9224 20.273 49.5125 22.4289 44.4176C24.5096 39.4962 27.4891 35.0775 31.2836 31.2831C35.078 27.4886 39.4966 24.5091 44.4181 22.4284C49.513 20.2726 54.9229 19.1802 60.5004 19.1802C66.0779 19.1802 71.4878 20.2726 76.5827 22.4284C81.5042 24.5091 85.9229 27.4886 89.7173 31.2831C93.5117 35.0775 96.4912 39.4962 98.5719 44.4176C100.728 49.5125 101.82 54.9224 101.82 60.4999C101.82 66.0774 100.728 71.4873 98.5719 76.5822C96.4912 81.5037 93.5117 85.9224 89.7173 89.7168C85.9229 93.5112 81.5042 96.4907 76.5827 98.5714C71.4907 100.724 66.0779 101.817 60.5004 101.817ZM60.5004 19.2351C54.9287 19.2351 49.5246 20.3275 44.4384 22.4775C39.5255 24.5554 35.1127 27.532 31.3211 31.3206C27.5325 35.1093 24.5559 39.5222 22.478 44.4379C20.3251 49.5241 19.2356 54.9282 19.2356 60.4999C19.2356 66.0717 20.328 71.4729 22.478 76.562C24.5559 81.4748 27.5325 85.8877 31.3211 89.6792C35.1098 93.4679 39.5227 96.4445 44.4384 98.5223C49.5246 100.675 54.9287 101.765 60.5004 101.765C66.0721 101.765 71.4734 100.672 76.5625 98.5223C81.4753 96.4445 85.8882 93.4679 89.6797 89.6792C93.4684 85.8906 96.445 81.4777 98.5228 76.562C100.676 71.4758 101.765 66.0717 101.765 60.4999C101.765 54.9282 100.676 49.5241 98.5228 44.4379C96.445 39.5251 93.4684 35.1122 89.6797 31.3206C85.8911 27.532 81.4782 24.5554 76.5625 22.4775C71.4762 20.3246 66.0721 19.2351 60.5004 19.2351Z" fill="#626364"/>
<path d="M60.4996 99.1809C55.2776 99.1809 50.2116 98.1578 45.4432 96.1407C40.8367 94.1929 36.7013 91.4041 33.1467 87.8496C29.595 84.2979 26.8063 80.1596 24.8556 75.556C22.8385 70.7876 21.8154 65.7216 21.8154 60.4996C21.8154 55.2776 22.8385 50.2116 24.8556 45.4432C26.8034 40.8367 29.5921 36.7013 33.1467 33.1467C36.7013 29.5921 40.8367 26.8063 45.4432 24.8556C50.2116 22.8385 55.2776 21.8154 60.4996 21.8154C65.7216 21.8154 70.7876 22.8385 75.556 24.8556C80.1625 26.8034 84.2979 29.5921 87.8496 33.1467C91.4013 36.6984 94.19 40.8367 96.1407 45.4432C98.1578 50.2116 99.1809 55.2776 99.1809 60.4996C99.1809 65.7216 98.1578 70.7876 96.1407 75.556C94.1929 80.1625 91.4041 84.2979 87.8496 87.8496C84.2979 91.4013 80.1596 94.19 75.556 96.1407C70.7876 98.1578 65.7216 99.1809 60.4996 99.1809ZM60.4996 21.8674C55.2833 21.8674 50.226 22.8876 45.4635 24.9018C40.8627 26.8467 36.7331 29.6326 33.1843 33.1814C29.6355 36.7302 26.8496 40.8599 24.9047 45.4606C22.8905 50.2231 21.8703 55.2833 21.8703 60.4967C21.8703 65.7101 22.8905 70.7703 24.9047 75.5328C26.8496 80.1336 29.6355 84.2632 33.1843 87.812C36.7331 91.3608 40.8627 94.1438 45.4635 96.0916C50.226 98.1058 55.2862 99.126 60.4996 99.126C65.713 99.126 70.7732 98.1058 75.5357 96.0916C80.1364 94.1467 84.2661 91.3608 87.8149 87.812C91.3637 84.2632 94.1467 80.1336 96.0945 75.5328C98.1087 70.7703 99.1288 65.7101 99.1288 60.4967C99.1288 55.2833 98.1087 50.2231 96.0945 45.4606C94.1495 40.8599 91.3637 36.7302 87.8149 33.1814C84.2661 29.6326 80.1364 26.8467 75.5357 24.9018C70.7732 22.8876 65.713 21.8674 60.4996 21.8674Z" fill="#626364"/>
<path d="M60.4998 96.5455C55.6332 96.5455 50.914 95.5918 46.4693 93.7134C42.1778 91.8985 38.3227 89.2976 35.0109 85.9887C31.6991 82.6769 29.1011 78.8246 27.2862 74.5302C25.4078 70.0856 24.4541 65.3664 24.4541 60.4998C24.4541 55.6332 25.4078 50.914 27.2862 46.4693C29.1011 42.1778 31.702 38.3227 35.0109 35.0109C38.3198 31.6991 42.175 29.1011 46.4693 27.2862C50.914 25.4078 55.6332 24.4541 60.4998 24.4541C65.3664 24.4541 70.0856 25.4078 74.5302 27.2862C78.8217 29.1011 82.6769 31.702 85.9887 35.0109C89.2976 38.3227 91.8985 42.175 93.7134 46.4693C95.5918 50.914 96.5455 55.6332 96.5455 60.4998C96.5455 65.3664 95.5918 70.0856 93.7134 74.5302C91.8985 78.8217 89.2976 82.6769 85.9887 85.9887C82.6769 89.3005 78.8246 91.8985 74.5302 93.7134C70.0856 95.5918 65.3664 96.5455 60.4998 96.5455ZM60.4998 24.5003C55.639 24.5003 50.9256 25.4511 46.4867 27.3295C42.201 29.1415 38.3487 31.7395 35.0427 35.0456C31.7366 38.3516 29.1415 42.201 27.3267 46.4896C25.4482 50.9284 24.4974 55.6419 24.4974 60.5027C24.4974 65.3635 25.4482 70.0769 27.3267 74.5158C29.1386 78.8015 31.7366 82.6537 35.0427 85.9598C38.3487 89.2658 42.1981 91.861 46.4867 93.6758C50.9256 95.5542 55.639 96.505 60.4998 96.505C65.3606 96.505 70.074 95.5542 74.5129 93.6758C78.7986 91.8638 82.6509 89.2658 85.954 85.9598C89.26 82.6537 91.8552 78.8044 93.67 74.5158C95.5485 70.0769 96.4992 65.3635 96.4992 60.5027C96.4992 55.6419 95.5485 50.9284 93.67 46.4896C91.8581 42.2038 89.26 38.3516 85.954 35.0456C82.648 31.7395 78.7986 29.1444 74.5129 27.3295C70.074 25.4511 65.3606 24.5003 60.4998 24.5003Z" fill="#626364"/>
<path d="M60.4999 93.91C55.9888 93.91 51.6135 93.0257 47.4954 91.283C43.516 89.6011 39.9441 87.191 36.875 84.1219C33.8059 81.0528 31.3986 77.4809 29.7138 73.5015C27.9712 69.3834 27.0869 65.0081 27.0869 60.497C27.0869 55.9858 27.9712 51.6105 29.7138 47.4924C31.3957 43.513 33.8059 39.9411 36.875 36.8721C39.9441 33.803 43.516 31.3957 47.4954 29.7109C51.6135 27.9683 55.9917 27.084 60.4999 27.084C65.0081 27.084 69.3863 27.9683 73.5044 29.7109C77.4838 31.3928 81.0557 33.803 84.1248 36.8721C87.1939 39.9411 89.6012 43.513 91.286 47.4924C93.0286 51.6105 93.9129 55.9887 93.9129 60.497C93.9129 65.0052 93.0286 69.3834 91.286 73.5015C89.6041 77.4809 87.1939 81.0528 84.1248 84.1219C81.0557 87.191 77.4838 89.5982 73.5044 91.283C69.3863 93.0257 65.011 93.91 60.4999 93.91ZM60.4999 27.1302C55.9946 27.1302 51.625 28.0116 47.5127 29.7514C43.5391 31.4304 39.9701 33.8377 36.9068 36.901C33.8435 39.9643 31.4362 43.5333 29.7543 47.5069C28.0146 51.6192 27.1332 55.9916 27.1332 60.4941C27.1332 64.9965 28.0146 69.369 29.7543 73.4813C31.4333 77.4549 33.8406 81.0239 36.9068 84.0872C39.9701 87.1505 43.5391 89.5578 47.5127 91.2397C51.625 92.9794 55.9974 93.8608 60.4999 93.8608C65.0024 93.8608 69.3748 92.9794 73.4871 91.2397C77.4607 89.5578 81.0297 87.1534 84.093 84.0872C87.1563 81.0239 89.5636 77.4549 91.2455 73.4813C92.9852 69.3661 93.8667 64.9965 93.8667 60.4941C93.8667 55.9916 92.9852 51.6192 91.2455 47.5069C89.5636 43.5333 87.1592 39.9643 84.093 36.901C81.0297 33.8377 77.4607 31.4304 73.4871 29.7514C69.3719 28.0116 65.0024 27.1302 60.4999 27.1302Z" fill="#626364"/>
<path d="M60.5001 91.2771C56.3444 91.2771 52.3159 90.4621 48.5215 88.8582C44.8571 87.3092 41.5655 85.0898 38.7392 82.2635C35.9129 79.4372 33.6934 76.1456 32.1444 72.4812C30.5405 68.6867 29.7256 64.6553 29.7256 60.5025C29.7256 56.3498 30.5405 52.3184 32.1444 48.5239C33.6934 44.8595 35.9129 41.5679 38.7392 38.7416C41.5655 35.9153 44.8571 33.6959 48.5215 32.1469C52.3159 30.543 56.3473 29.728 60.5001 29.728C64.6529 29.728 68.6843 30.543 72.4787 32.1469C76.1431 33.6959 79.4347 35.9153 82.261 38.7416C85.0874 41.5679 87.3068 44.8595 88.8558 48.5239C90.4597 52.3184 91.2746 56.3498 91.2746 60.5025C91.2746 64.6553 90.4597 68.6867 88.8558 72.4812C87.3068 76.1456 85.0874 79.4372 82.261 82.2635C79.4347 85.0898 76.1431 87.3092 72.4787 88.8582C68.6843 90.4621 64.6529 91.2771 60.5001 91.2771ZM60.5001 29.7627C56.3502 29.7627 52.3246 30.5748 48.5359 32.1787C44.8773 33.7276 41.5886 35.9442 38.7652 38.7647C35.9418 41.5882 33.7252 44.874 32.1791 48.5355C30.5752 52.3241 29.7632 56.3498 29.7632 60.4997C29.7632 64.6495 30.5752 68.6752 32.1791 72.4638C33.7281 76.1253 35.9446 79.4111 38.7652 82.2346C41.5886 85.058 44.8744 87.2746 48.5359 88.8206C52.3246 90.4245 56.3502 91.2366 60.5001 91.2366C64.65 91.2366 68.6756 90.4245 72.4643 88.8206C76.1258 87.2717 79.4116 85.0551 82.235 82.2346C85.0585 79.4111 87.275 76.1253 88.8211 72.4638C90.425 68.6752 91.2371 64.6495 91.2371 60.4997C91.2371 56.3498 90.425 52.3241 88.8211 48.5355C87.2721 44.8769 85.0585 41.5882 82.235 38.7647C79.4116 35.9413 76.1258 33.7248 72.4643 32.1787C68.6756 30.5748 64.65 29.7627 60.5001 29.7627Z" fill="#626364"/>
<path d="M60.5003 88.6416C56.7 88.6416 53.0154 87.8989 49.5475 86.4309C46.1953 85.0148 43.1869 82.9861 40.6033 80.3996C38.0197 77.8161 35.991 74.8048 34.5721 71.4554C33.104 67.9875 32.3613 64.3 32.3613 60.5027C32.3613 56.7054 33.1069 53.0179 34.5721 49.55C35.9881 46.1977 38.0197 43.1893 40.6033 40.6058C43.1869 38.0222 46.1982 35.9935 49.5475 34.5745C53.0183 33.1065 56.7029 32.3638 60.5003 32.3638C64.2976 32.3638 67.9851 33.1094 71.453 34.5745C74.8052 35.9906 77.8136 38.0222 80.3972 40.6058C82.9808 43.1893 85.0095 46.2006 86.4284 49.55C87.8965 53.0208 88.6392 56.7054 88.6392 60.5027C88.6392 64.3 87.8965 67.9875 86.4284 71.4554C85.0124 74.8077 82.9837 77.8161 80.3972 80.3996C77.8136 82.9832 74.8024 85.0119 71.453 86.4309C67.9851 87.8989 64.2976 88.6416 60.5003 88.6416ZM60.5003 32.3956C56.7058 32.3956 53.0241 33.1383 49.5591 34.6034C46.2126 36.0195 43.2071 38.0453 40.6264 40.626C38.0458 43.2067 36.0199 46.2122 34.6039 49.5587C33.1387 53.0236 32.396 56.7054 32.396 60.4998C32.396 64.2942 33.1387 67.9731 34.6039 71.4381C36.0199 74.7846 38.0458 77.7901 40.6264 80.3707C43.2071 82.9514 46.2126 84.9801 49.5591 86.3933C53.0241 87.8585 56.7058 88.6012 60.5003 88.6012C64.2947 88.6012 67.9735 87.8585 71.4385 86.3933C74.785 84.9772 77.7905 82.9514 80.3712 80.3707C82.9519 77.7901 84.9777 74.7846 86.3937 71.4381C87.8589 67.9731 88.6016 64.2914 88.6016 60.4998C88.6016 56.7083 87.8589 53.0236 86.3937 49.5587C84.9777 46.2122 82.9519 43.2067 80.3712 40.626C77.7905 38.0453 74.785 36.0195 71.4385 34.6034C67.9735 33.1383 64.2918 32.3956 60.5003 32.3956Z" fill="#626364"/>
<path d="M60.5004 86.0061C57.0556 86.0061 53.7178 85.3328 50.5707 84.0005C47.5334 82.7145 44.8053 80.8766 42.4645 78.5328C40.1208 76.1891 38.2828 73.464 36.9997 70.4267C35.6704 67.2825 34.9941 63.9418 34.9941 60.4999C34.9941 57.058 35.6675 53.7173 36.9997 50.5702C38.2857 47.5329 40.1237 44.8049 42.4645 42.464C44.8082 40.1203 47.5334 38.2824 50.5707 36.9992C53.7149 35.6699 57.0556 34.9937 60.5004 34.9937C63.9451 34.9937 67.283 35.667 70.4272 36.9992C73.4645 38.2852 76.1925 40.1232 78.5333 42.464C80.877 44.8077 82.715 47.5329 83.9981 50.5702C85.3275 53.7144 86.0008 57.0551 86.0008 60.4999C86.0008 63.9446 85.3275 67.2825 83.9981 70.4267C82.7121 73.464 80.8742 76.192 78.5333 78.5328C76.1925 80.8766 73.4645 82.7145 70.4272 84.0005C67.283 85.3299 63.9422 86.0061 60.5004 86.0061ZM60.5004 35.0254C57.0614 35.0254 53.7265 35.6988 50.5851 37.0281C47.5507 38.3113 44.8285 40.1492 42.4876 42.4872C40.1468 44.828 38.3117 47.5503 37.0286 50.5846C35.6993 53.726 35.0259 57.0609 35.0259 60.4999C35.0259 63.9389 35.6993 67.2738 37.0286 70.4151C38.3117 73.4495 40.1497 76.1718 42.4876 78.5126C44.8256 80.8534 47.5507 82.6885 50.5851 83.9716C53.7265 85.2981 57.0614 85.9743 60.5004 85.9743C63.9394 85.9743 67.2743 85.301 70.4156 83.9716C73.45 82.6885 76.1723 80.8505 78.5131 78.5126C80.851 76.1747 82.689 73.4495 83.9721 70.4151C85.2986 67.2738 85.9748 63.9389 85.9748 60.4999C85.9748 57.0609 85.3015 53.726 83.9721 50.5846C82.689 47.5503 80.851 44.828 78.5131 42.4872C76.1752 40.1492 73.45 38.3113 70.4156 37.0281C67.2743 35.6988 63.9394 35.0254 60.5004 35.0254Z" fill="#626364"/>
<path d="M60.5005 83.3706C57.4141 83.3706 54.4173 82.7667 51.5967 81.5731C48.8744 80.4201 46.4267 78.7728 44.3257 76.6719C42.2248 74.5709 40.5775 72.1261 39.4245 69.4009C38.2309 66.5803 37.627 63.5864 37.627 60.5C37.627 57.4136 38.2309 54.4168 39.4245 51.5962C40.5775 48.8739 42.2248 46.4262 44.3257 44.3252C46.4267 42.2243 48.8715 40.5771 51.5967 39.424C54.4173 38.2305 57.4112 37.6265 60.5005 37.6265C63.5898 37.6265 66.5837 38.2305 69.4014 39.424C72.1237 40.5771 74.5714 42.2243 76.6724 44.3252C78.7733 46.4262 80.4205 48.8711 81.5736 51.5962C82.7671 54.4168 83.3711 57.4107 83.3711 60.5C83.3711 63.5893 82.7671 66.5832 81.5736 69.4009C80.4205 72.1232 78.7733 74.5709 76.6724 76.6719C74.5714 78.7728 72.1265 80.4201 69.4014 81.5731C66.5808 82.7667 63.5869 83.3706 60.5005 83.3706ZM60.5005 37.6583C57.417 37.6583 54.4259 38.2622 51.6083 39.4529C48.8889 40.6031 46.4469 42.2503 44.3489 44.3484C42.2508 46.4464 40.6035 48.8884 39.4534 51.6078C38.2627 54.4225 37.6587 57.4136 37.6587 60.5C37.6587 63.5864 38.2627 66.5746 39.4534 69.3893C40.6035 72.1087 42.2508 74.5507 44.3489 76.6488C46.4469 78.7468 48.8889 80.3941 51.6083 81.5442C54.423 82.7349 57.417 83.3389 60.5005 83.3389C63.584 83.3389 66.5751 82.7349 69.3898 81.5442C72.1092 80.3941 74.5512 78.7468 76.6492 76.6488C78.7473 74.5507 80.3945 72.1087 81.5447 69.3893C82.7354 66.5746 83.3393 63.5835 83.3393 60.5C83.3393 57.4165 82.7354 54.4254 81.5447 51.6078C80.3945 48.8884 78.7473 46.4464 76.6492 44.3484C74.5512 42.2503 72.1092 40.6031 69.3898 39.4529C66.5751 38.2622 63.584 37.6583 60.5005 37.6583Z" fill="#626364"/>
<path d="M60.4997 80.7347C57.7687 80.7347 55.1187 80.2001 52.6218 79.1453C50.2116 78.1251 48.0471 76.6657 46.1889 74.8075C44.3307 72.9493 42.8713 70.7848 41.8512 68.3746C40.7963 65.8807 40.2617 63.2306 40.2617 60.4997C40.2617 57.7687 40.7963 55.1187 41.8512 52.6218C42.8713 50.2116 44.3307 48.0471 46.1889 46.1889C48.0471 44.3307 50.2116 42.8713 52.6218 41.8512C55.1158 40.7963 57.7658 40.2617 60.4997 40.2617C63.2335 40.2617 65.8807 40.7963 68.3746 41.8512C70.7848 42.8713 72.9493 44.3307 74.8075 46.1889C76.6657 48.0471 78.1251 50.2116 79.1424 52.6218C80.1972 55.1158 80.7318 57.7658 80.7318 60.4997C80.7318 63.2335 80.1972 65.8807 79.1424 68.3746C78.1223 70.7848 76.6629 72.9493 74.8075 74.8075C72.9493 76.6657 70.7848 78.1251 68.3746 79.1453C65.8807 80.2001 63.2306 80.7347 60.4997 80.7347ZM60.4997 40.2906C57.7716 40.2906 55.1245 40.8252 52.6334 41.8801C50.2261 42.8973 48.0644 44.3567 46.2091 46.212C44.3538 48.0673 42.8973 50.229 41.8772 52.6363C40.8224 55.1273 40.2877 57.7745 40.2877 60.5026C40.2877 63.2306 40.8224 65.8778 41.8772 68.3689C42.8944 70.7761 44.3538 72.9378 46.2091 74.7931C48.0644 76.6484 50.2261 78.1049 52.6334 79.1251C55.1245 80.1799 57.7716 80.7145 60.4997 80.7145C63.2277 80.7145 65.8749 80.1799 68.366 79.1251C70.7733 78.1078 72.9349 76.6513 74.7902 74.7931C76.6455 72.9378 78.102 70.7761 79.1222 68.3689C80.177 65.8778 80.7116 63.2306 80.7116 60.5026C80.7116 57.7745 80.177 55.1273 79.1222 52.6363C78.1049 50.229 76.6455 48.0673 74.7902 46.212C72.9349 44.3567 70.7733 42.9002 68.366 41.8801C65.8749 40.8252 63.2277 40.2906 60.4997 40.2906Z" fill="#626364"/>
<path d="M60.4998 78.0988C58.1243 78.0988 55.8182 77.6335 53.6479 76.7145C51.5527 75.8273 49.6685 74.5587 48.053 72.9432C46.4376 71.3277 45.1689 69.4435 44.2817 67.3484C43.3627 65.178 42.8975 62.8748 42.8975 60.4964C42.8975 58.118 43.3627 55.8148 44.2817 53.6445C45.1689 51.5493 46.4376 49.6651 48.053 48.0496C49.6685 46.4342 51.5527 45.1655 53.6479 44.2783C55.8182 43.3593 58.1214 42.894 60.4998 42.894C62.8782 42.894 65.1815 43.3593 67.3518 44.2783C69.4469 45.1655 71.3283 46.4342 72.9466 48.0496C74.565 49.6651 75.8336 51.5493 76.7179 53.6445C77.6369 55.8148 78.1022 58.118 78.1022 60.4964C78.1022 62.8748 77.6369 65.178 76.7179 67.3484C75.8307 69.4435 74.5621 71.3277 72.9466 72.9432C71.3312 74.5587 69.4469 75.8302 67.3518 76.7145C65.1815 77.6335 62.8753 78.0988 60.4998 78.0988ZM60.4998 42.9201C58.1272 42.9201 55.824 43.3853 53.6565 44.3014C51.5643 45.1857 49.6829 46.4544 48.0704 48.0698C46.4549 49.6853 45.1891 51.5637 44.302 53.656C43.3859 55.8234 42.9206 58.1238 42.9206 60.4993C42.9206 62.8748 43.3859 65.1752 44.302 67.3397C45.1863 69.432 46.4549 71.3133 48.0704 72.9259C49.6858 74.5413 51.5643 75.8071 53.6565 76.6943C55.824 77.6104 58.1243 78.0757 60.4998 78.0757C62.8753 78.0757 65.1757 77.6104 67.3402 76.6943C69.4325 75.81 71.3138 74.5413 72.9264 72.9259C74.5389 71.3104 75.8076 69.432 76.6919 67.3397C77.608 65.1723 78.0733 62.8719 78.0733 60.4993C78.0733 58.1267 77.608 55.8234 76.6919 53.656C75.8076 51.5637 74.5389 49.6824 72.9264 48.0698C71.3109 46.4544 69.4325 45.1886 67.3402 44.3014C65.1728 43.3853 62.8724 42.9201 60.4998 42.9201Z" fill="#626364"/>
<path d="M60.4999 75.68C58.451 75.68 56.4627 75.2783 54.5901 74.4865C52.781 73.7207 51.1598 72.6283 49.764 71.2325C48.371 69.8367 47.2758 68.2154 46.5099 66.4063C45.7181 64.5337 45.3164 62.5454 45.3164 60.4965C45.3164 58.4476 45.7181 56.4593 46.5099 54.5867C47.2758 52.7776 48.3681 51.1564 49.764 49.7605C51.1569 48.3676 52.781 47.2723 54.5901 46.5065C56.4627 45.7147 58.451 45.313 60.4999 45.313C62.5489 45.313 64.5371 45.7147 66.4098 46.5065C68.216 47.2723 69.8401 48.3647 71.2359 49.7605C72.6288 51.1535 73.7241 52.7776 74.4899 54.5867C75.2818 56.4593 75.6835 58.4476 75.6835 60.4965C75.6835 62.5454 75.2818 64.5337 74.4899 66.4063C73.727 68.2125 72.6317 69.8367 71.2359 71.2325C69.8401 72.6254 68.2188 73.7207 66.4098 74.4865C64.5371 75.2783 62.5489 75.68 60.4999 75.68ZM60.4999 45.339C58.4539 45.339 56.4685 45.7407 54.5988 46.5296C52.7926 47.2926 51.1713 48.3878 49.7784 49.7779C48.3855 51.1708 47.2931 52.792 46.5302 54.5982C45.7383 56.468 45.3395 58.4534 45.3395 60.4994C45.3395 62.5454 45.7412 64.5308 46.5302 66.4006C47.2931 68.2068 48.3855 69.828 49.7784 71.218C51.1713 72.611 52.7926 73.7033 54.5988 74.4663C56.4685 75.2581 58.4539 75.6569 60.4999 75.6569C62.546 75.6569 64.5313 75.2552 66.4011 74.4663C68.2073 73.7033 69.8285 72.611 71.2186 71.218C72.6115 69.8251 73.7039 68.2039 74.4668 66.4006C75.2557 64.5308 75.6574 62.5454 75.6574 60.4994C75.6574 58.4534 75.2557 56.468 74.4668 54.5982C73.7039 52.792 72.6086 51.1708 71.2186 49.7779C69.8256 48.3849 68.2044 47.2926 66.4011 46.5296C64.5313 45.7378 62.546 45.339 60.4999 45.339Z" fill="#626364"/>
<path d="M60.5001 73.2584C58.7777 73.2584 57.1073 72.9203 55.5323 72.2556C54.0122 71.6141 52.6482 70.6922 51.4749 69.5218C50.3016 68.3514 49.3826 66.9845 48.7411 65.4644C48.0764 63.8923 47.7383 62.219 47.7383 60.4967C47.7383 58.7743 48.0764 57.1039 48.7411 55.5289C49.3826 54.0088 50.3045 52.6448 51.4749 51.4715C52.6482 50.2982 54.0122 49.3792 55.5323 48.7377C57.1044 48.073 58.7777 47.7349 60.5001 47.7349C62.2224 47.7349 63.8928 48.073 65.4678 48.7377C66.9879 49.3792 68.3519 50.3011 69.5252 51.4715C70.6956 52.6448 71.6175 54.0088 72.2591 55.5289C72.9237 57.101 73.2619 58.7743 73.2619 60.4967C73.2619 62.219 72.9237 63.8894 72.2591 65.4644C71.6175 66.9845 70.6956 68.3485 69.5252 69.5218C68.3548 70.6922 66.9879 71.6141 65.4678 72.2556C63.8957 72.9203 62.2224 73.2584 60.5001 73.2584ZM60.5001 47.7551C58.7806 47.7551 57.1102 48.0932 55.541 48.7579C54.0238 49.3994 52.6598 50.3184 51.4894 51.4888C50.319 52.6592 49.4 54.0233 48.7584 55.5405C48.0937 57.1126 47.7556 58.7801 47.7556 60.5024C47.7556 62.2248 48.0937 63.8923 48.7584 65.4615C49.4 66.9787 50.319 68.3427 51.4894 69.5131C52.6598 70.6835 54.0238 71.6025 55.541 72.2441C57.1131 72.9088 58.7806 73.244 60.5001 73.244C62.2196 73.244 63.8899 72.9059 65.462 72.2441C66.9792 71.6025 68.3432 70.6835 69.5137 69.5131C70.6841 68.3427 71.6031 66.9787 72.2446 65.4615C72.9093 63.8894 73.2445 62.2219 73.2445 60.5024C73.2445 58.7829 72.9064 57.1126 72.2446 55.5405C71.6031 54.0233 70.6841 52.6592 69.5137 51.4888C68.3432 50.3184 66.9792 49.3994 65.462 48.7579C63.8899 48.0932 62.2224 47.7551 60.5001 47.7551Z" fill="#626364"/>
<path d="M60.5002 70.8397C59.1044 70.8397 57.749 70.5652 56.4746 70.0277C55.2435 69.5075 54.1367 68.7619 53.1888 67.8111C52.238 66.8603 51.4924 65.7564 50.9722 64.5253C50.4318 63.2509 50.1602 61.8955 50.1602 60.4997C50.1602 59.1039 50.4347 57.7485 50.9722 56.4741C51.4924 55.243 52.238 54.1361 53.1888 53.1853C54.1395 52.2346 55.2435 51.489 56.4746 50.9688C57.749 50.4284 59.1044 50.1567 60.5002 50.1567C61.896 50.1567 63.2514 50.4313 64.5258 50.9688C65.7569 51.489 66.8638 52.2346 67.8116 53.1853C68.7624 54.1361 69.508 55.2401 70.0282 56.4741C70.5686 57.7485 70.8403 59.1039 70.8403 60.4997C70.8403 61.8955 70.5657 63.2509 70.0282 64.5253C69.508 65.7564 68.7624 66.8632 67.8116 67.8111C66.8609 68.7619 65.7569 69.5075 64.5258 70.0277C63.2514 70.5681 61.896 70.8397 60.5002 70.8397ZM60.5002 50.1712C59.1073 50.1712 57.7548 50.4428 56.4804 50.9832C55.2493 51.5034 54.1453 52.249 53.1974 53.1969C52.2496 54.1448 51.504 55.2487 50.9838 56.4798C50.4463 57.7543 50.1717 59.1068 50.1717 60.4997C50.1717 61.8926 50.4434 63.2451 50.9838 64.5195C51.504 65.7506 52.2496 66.8546 53.1974 67.8025C54.1453 68.7503 55.2493 69.4959 56.4804 70.0161C57.7548 70.5565 59.1044 70.8282 60.5002 70.8282C61.896 70.8282 63.2456 70.5565 64.5201 70.0161C65.7511 69.4959 66.8551 68.7503 67.803 67.8025C68.7509 66.8546 69.4965 65.7506 70.0166 64.5195C70.5542 63.2451 70.8287 61.8955 70.8287 60.4997C70.8287 59.1039 70.5542 57.7543 70.0166 56.4798C69.4965 55.2487 68.7509 54.1448 67.803 53.1969C66.8551 52.249 65.7511 51.5034 64.5201 50.9832C63.2456 50.4457 61.896 50.1712 60.5002 50.1712Z" fill="#626364"/>
<path d="M60.5004 68.4206C59.4311 68.4206 58.3936 68.2097 57.4168 67.7993C56.4747 67.4005 55.6251 66.8283 54.8997 66.1029C54.1715 65.3747 53.6022 64.5279 53.2034 63.5858C52.7901 62.609 52.582 61.5716 52.582 60.5023C52.582 59.433 52.7901 58.3956 53.2034 57.4188C53.6022 56.4767 54.1744 55.627 54.8997 54.9017C55.628 54.1734 56.4747 53.6041 57.4168 53.2053C58.3936 52.7921 59.4311 52.584 60.5004 52.584C61.5696 52.584 62.6071 52.7921 63.5839 53.2053C64.526 53.6041 65.3727 54.1763 66.101 54.9017C66.8292 55.6299 67.3985 56.4767 67.7973 57.4188C68.2106 58.3956 68.4187 59.433 68.4187 60.5023C68.4187 61.5716 68.2077 62.609 67.7973 63.5858C67.3985 64.5279 66.8263 65.3747 66.101 66.1029C65.3727 66.8312 64.526 67.4005 63.5839 67.7993C62.6071 68.2125 61.5696 68.4206 60.5004 68.4206ZM60.5004 52.5898C59.4311 52.5898 58.3965 52.7978 57.4226 53.2111C56.4805 53.6099 55.6338 54.1792 54.9084 54.9075C54.183 55.6328 53.6108 56.4796 53.212 57.4217C52.7988 58.3956 52.5907 59.433 52.5907 60.4994C52.5907 61.5658 52.7988 62.6033 53.212 63.5772C53.6108 64.5193 54.1801 65.366 54.9084 66.0914C55.6338 66.8167 56.4805 67.3889 57.4226 67.7877C58.3965 68.201 59.434 68.4091 60.5004 68.4091C61.5667 68.4091 62.6042 68.201 63.5781 67.7877C64.5202 67.3889 65.3669 66.8196 66.0923 66.0914C66.8177 65.3631 67.3899 64.5193 67.7887 63.5772C68.2019 62.6033 68.41 61.5658 68.41 60.4994C68.41 59.433 68.2019 58.3956 67.7887 57.4217C67.3899 56.4796 66.8206 55.6328 66.0923 54.9075C65.3669 54.1821 64.5202 53.6099 63.5781 53.2111C62.6042 52.7978 61.5667 52.5898 60.5004 52.5898Z" fill="#626364"/>
<path d="M60.5004 65.9989C59.7577 65.9989 59.0381 65.8544 58.359 65.5654C57.703 65.288 57.1163 64.892 56.6106 64.3863C56.1049 63.8806 55.709 63.2939 55.4315 62.6379C55.1454 61.9588 54.998 61.2392 54.998 60.4965C54.998 59.7538 55.1425 59.0342 55.4315 58.3551C55.709 57.6991 56.1049 57.1124 56.6106 56.6067C57.1163 56.101 57.703 55.7051 58.359 55.4276C59.0381 55.1415 59.7577 54.9941 60.5004 54.9941C61.2431 54.9941 61.9627 55.1386 62.6418 55.4276C63.2978 55.7051 63.8845 56.101 64.3902 56.6067C64.8959 57.1124 65.2919 57.6991 65.5693 58.3551C65.8554 59.0342 66.0028 59.7538 66.0028 60.4965C66.0028 61.2392 65.8583 61.9588 65.5693 62.6379C65.2919 63.2939 64.8959 63.8806 64.3902 64.3863C63.8845 64.892 63.2978 65.288 62.6418 65.5654C61.9627 65.8515 61.2431 65.9989 60.5004 65.9989ZM60.5004 55.0057C59.7577 55.0057 59.0381 55.1502 58.3619 55.4363C57.7088 55.7137 57.1192 56.1096 56.6164 56.6125C56.1107 57.1182 55.7147 57.7049 55.4402 58.358C55.1541 59.0342 55.0096 59.7538 55.0096 60.4965C55.0096 61.2392 55.1541 61.9559 55.4402 62.635C55.7176 63.2881 56.1135 63.8777 56.6164 64.3805C57.1221 64.8834 57.7088 65.2822 58.3619 65.5567C59.0381 65.8428 59.7577 65.9873 60.5004 65.9873C61.2431 65.9873 61.9598 65.8428 62.6389 65.5567C63.2921 65.2793 63.8816 64.8834 64.3844 64.3805C64.8873 63.8748 65.2832 63.2881 65.5606 62.635C65.8467 61.9588 65.9912 61.2392 65.9912 60.4965C65.9912 59.7538 65.8467 59.0342 65.5606 58.358C65.2832 57.7049 64.8873 57.1153 64.3844 56.6125C63.8787 56.1067 63.2921 55.7108 62.6389 55.4363C61.9627 55.1502 61.2431 55.0057 60.5004 55.0057Z" fill="#626364"/>
<path d="M60.5006 63.5802C60.0844 63.5802 59.6827 63.4993 59.3012 63.3375C58.9342 63.1814 58.6048 62.9589 58.3216 62.6786C58.0384 62.3953 57.8158 62.0659 57.6627 61.6989C57.5008 61.3174 57.4199 60.9157 57.4199 60.4996C57.4199 60.0834 57.5008 59.6788 57.6627 59.3003C57.8187 58.9332 58.0384 58.6038 58.3216 58.3206C58.6048 58.0374 58.9342 57.8149 59.3012 57.6617C59.6798 57.4999 60.0844 57.4189 60.5006 57.4189C60.9167 57.4189 61.3184 57.4999 61.6999 57.6617C62.0669 57.8178 62.3963 58.0374 62.6795 58.3206C62.9627 58.6038 63.1853 58.9332 63.3384 59.3003C63.5003 59.6788 63.5812 60.0834 63.5812 60.4996C63.5812 60.9157 63.5003 61.3174 63.3384 61.6989C63.1824 62.0659 62.9599 62.3953 62.6795 62.6786C62.3963 62.9618 62.0669 63.1843 61.6999 63.3375C61.3213 63.4993 60.9167 63.5802 60.5006 63.5802ZM60.5006 57.4247C60.0844 57.4247 59.6827 57.5056 59.3041 57.6675C58.9371 57.8235 58.6077 58.0432 58.3273 58.3264C58.0441 58.6096 57.8245 58.939 57.6685 59.3032C57.5066 59.6817 57.4257 60.0863 57.4257 60.4996C57.4257 60.9128 57.5066 61.3174 57.6685 61.696C57.8245 62.063 58.0441 62.3896 58.3273 62.6728C58.6106 62.956 58.94 63.1756 59.3041 63.3317C59.6827 63.4935 60.0873 63.5744 60.5006 63.5744C60.9138 63.5744 61.3184 63.4935 61.697 63.3317C62.064 63.1756 62.3934 62.956 62.6738 62.6728C62.957 62.3896 63.1795 62.0601 63.3326 61.696C63.4945 61.3174 63.5754 60.9128 63.5754 60.4996C63.5754 60.0863 63.4945 59.6817 63.3326 59.3032C63.1766 58.9361 62.957 58.6067 62.6738 58.3264C62.3905 58.0432 62.0611 57.8235 61.697 57.6675C61.3184 57.5056 60.9138 57.4247 60.5006 57.4247Z" fill="#626364"/>
<circle cx="60.4744" cy="61.4744" r="12.4744" fill="#EAC04D"/>
</g>
<defs>
<clipPath id="clip0_59_1253">
<rect width="121" height="121" fill="white"/>
</clipPath>
</defs>
</svg>
