<svg
  width="33"
  height="34"
  viewBox="0 0 33 34"
  fill="none"
  xmlns="http://www.w3.org/2000/svg"
  class="flex-grow-0 flex-shrink-0 w-[33px] h-[33px]"
  preserveAspectRatio="none"
>
  <circle cx="16.5" cy="17" r="16.5" fill="#87CEFA"></circle>
  <path
    d="M6.83999 16.0552C7.00621 16.0552 7.33555 16.2503 7.03508 16.2503C6.72594 16.2503 6.72594 16.1202 7.03508 16.1202"
    stroke="#3B3029"
    stroke-linecap="round"
  ></path>
  <path
    d="M12.8877 15.795C13.1446 15.8272 12.9527 16.4289 12.9527 15.9901"
    stroke="#3B3029"
    stroke-linecap="round"
  ></path>
  <path
    d="M7.55518 19.3068C7.73746 19.3068 9.11538 19.4225 9.17736 19.2056C9.24136 18.9816 9.29443 18.7422 9.4411 18.5589C9.60312 18.3564 10.1455 18.7341 10.2865 18.801C10.4847 18.8948 10.6395 19.1117 10.8718 19.1117C11.2933 19.1117 11.7148 19.1117 12.1363 19.1117C12.6686 19.1117 13.2009 19.1117 13.7332 19.1117"
    stroke="#3B3029"
    stroke-linecap="round"
  ></path>
</svg>