<svg
  width="33"
  height="34"
  viewBox="0 0 33 34"
  fill="none"
  xmlns="http://www.w3.org/2000/svg"
  class="flex-grow-0 flex-shrink-0 w-[33px] h-[33px]"
  preserveAspectRatio="none"
>
  <circle cx="16.5" cy="17" r="16.5" fill="#4682B4"></circle>
  <path
    d="M8.25384 13.3075C6.87594 14.2031 5.39318 14.9983 3.71533 14.9983"
    stroke="#3B3029"
    stroke-linecap="round"
  ></path>
  <path
    d="M14.127 13.3075C14.2115 13.5424 14.3211 13.8454 14.5324 13.9799C14.6685 14.0665 15.0507 14.249 15.1009 14.4248C15.2278 14.8689 15.8373 14.925 16.2133 14.9934C17.1933 15.1716 18.1234 14.8203 19.1104 14.8203"
    stroke="#3B3029"
    stroke-linecap="round"
  ></path>
  <path
    d="M8.96582 19.8928C9.20467 19.7804 9.85689 19.4532 10.1227 19.5566C10.5362 19.7174 10.9367 19.9874 11.3488 20.14C11.8231 20.3157 12.6144 20.8219 12.6144 21.4056"
    stroke="#3B3029"
    stroke-linecap="round"
  ></path>
  <path
    d="M20.3282 16.8657C20.3282 17.6863 20.1993 19.0388 20.7939 19.6995C21.0549 19.9895 21.2313 20.3435 21.7104 20.3435C22.1327 20.3435 22.5471 20.4681 22.6418 19.9472C22.7004 19.6248 22.6468 19.2447 22.6468 18.9167C22.6468 18.6301 22.3813 18.0319 22.0622 17.9407C21.5489 17.7941 20.8365 17.1688 20.5957 16.6873"
    stroke="#3B3029"
    stroke-linecap="round"
  ></path>
</svg>