<svg
  width="33"
  height="34"
  viewBox="0 0 33 34"
  fill="none"
  xmlns="http://www.w3.org/2000/svg"
  class="flex-grow-0 flex-shrink-0 w-[33px] h-[33px]"
  preserveAspectRatio="none"
>
  <circle cx="16.5" cy="17" r="16.5" fill="#FFA500"></circle>
  <path
    d="M7.37988 17.327C7.37988 18.2075 6.7081 19.2057 7.10592 20.1008C7.26697 20.4632 7.43789 20.7515 7.89356 20.7515C8.2119 20.7515 8.47457 20.6368 8.54802 20.3063C8.64172 19.8846 8.84148 19.47 8.93994 19.0392C9.00518 18.7538 9.13753 18.0969 9.00843 17.8064C8.85917 17.4706 8.68129 17.4145 8.33875 17.3954C8.09818 17.3821 7.75211 17.0619 7.58536 17.3954"
    stroke="#3B3029"
    stroke-linecap="round"
  ></path>
  <path
    d="M3.54094 12.2883C3.74926 12.4341 5.13566 13.7485 4.90423 13.8642C4.50968 14.0615 4.07376 14.4992 3.78018 14.8212C3.65769 14.9555 2.474 16.2112 2.44727 16.1845"
    stroke="#3B3029"
    stroke-linecap="round"
  ></path>
  <path
    d="M4.77129 13.587C4.01944 13.587 2.66003 13.3781 1.96875 13.7237"
    stroke="#3B3029"
    stroke-linecap="round"
  ></path>
  <path
    d="M12.3846 15.0042C11.7315 15.0042 11.5023 14.3026 11.1634 13.8789C10.9619 13.6271 12.3212 12.6171 12.5699 12.5342"
    stroke="#3B3029"
    stroke-linecap="round"
  ></path>
  <path d="M11.5205 13.8926H14.114" stroke="#3B3029" stroke-linecap="round"></path>
</svg>