<svg width="37" height="40" viewBox="0 0 37 40" fill="none" xmlns="http://www.w3.org/2000/svg">
<path d="M30.6096 37.544L35.9254 18.544C36.0086 18.2464 36.0224 17.9333 35.9657 17.6294C35.909 17.3254 35.7832 17.0389 35.5984 16.7924C35.4135 16.5458 35.1746 16.346 34.9003 16.2085C34.6261 16.071 34.324 15.9996 34.0178 16H22.6539C22.491 16 22.3302 15.9629 22.1834 15.8914C22.0367 15.8199 21.9078 15.7159 21.8064 15.5871C21.705 15.4583 21.6336 15.308 21.5976 15.1475C21.5617 14.987 21.562 14.8204 21.5987 14.66L22.0936 12.496C22.547 10.511 22.6925 8.466 22.5252 6.436L22.4341 5.333C22.3366 4.14969 21.8269 3.03962 20.9958 2.2C20.2353 1.43219 19.2043 1.0006 18.1291 1H17.8915C17.2412 1 16.6423 1.356 16.3275 1.93L13.6954 6.715C12.5155 8.86108 10.7565 10.6245 8.62316 11.8L2.03147 15.43C1.71896 15.6023 1.45821 15.8565 1.27669 16.1659C1.09516 16.4752 0.99958 16.8284 1 17.188V37C1 37.5304 1.20859 38.0391 1.57987 38.4142C1.95115 38.7893 2.45471 39 2.97978 39H28.7041C29.1352 38.9999 29.5544 38.8576 29.8982 38.5948C30.2419 38.332 30.4924 37.9631 30.6096 37.544Z" stroke="#373737" stroke-opacity="0.8" stroke-width="2" stroke-linecap="round" stroke-linejoin="round"/>
</svg>
