<svg width="335" height="134" viewBox="0 0 335 134" fill="none" xmlns="http://www.w3.org/2000/svg">
<path d="M232.636 82.24V77.504H226.172V82.24H232.636ZM226.172 87.552V92.352H232.636V87.552H226.172ZM239.228 92.544L240.764 92.48C242.044 90.752 243.388 88.768 244.732 86.592C243.132 84.736 241.148 82.688 239.228 80.832V92.544ZM247.42 92.096L251.58 91.84C251.132 90.56 250.684 89.28 250.236 88.064C249.276 89.472 248.38 90.816 247.42 92.096ZM210.236 92.096L214.012 91.776C213.628 90.56 213.244 89.344 212.86 88.256C212.028 89.6 211.132 90.88 210.236 92.096ZM257.98 108.672H239.484C244.796 112.768 252.348 116.224 259.58 118.144C257.98 119.68 255.676 122.688 254.524 124.544C247.036 122.048 239.164 117.504 233.276 112.128V125.44H225.596V111.936C219.836 117.632 212.028 122.304 204.54 125.056C203.324 123.136 201.02 120.192 199.42 118.72C206.588 116.672 214.076 112.96 219.324 108.672H201.084V102.08H225.596V98.048H220.796L220.86 98.368L215.868 100.224C215.804 99.328 215.612 98.24 215.356 97.088L201.148 99.008L200.444 92.8L203.516 92.608C204.86 90.752 206.268 88.64 207.676 86.336C205.628 84.16 202.876 81.728 200.572 79.936L203.516 74.816L204.732 75.648C206.204 72.704 207.676 69.056 208.572 66.24L214.46 68.352C212.796 72 210.748 76.032 208.956 79.04C209.66 79.616 210.3 80.192 210.876 80.768C211.964 78.784 212.924 76.8 213.692 75.072L219.452 77.376C217.532 80.768 215.292 84.48 213.052 87.936L217.532 86.528C218.428 88.704 219.196 91.264 219.836 93.632V71.808H225.34C225.852 69.76 226.3 67.52 226.428 65.792L234.108 66.56C233.468 68.416 232.828 70.208 232.252 71.808H239.228V76.928L240.956 74.496L242.108 75.456C243.644 72.512 245.18 68.992 246.076 66.176L251.964 68.288C250.108 72.064 248.06 76.096 246.204 79.168C246.844 79.808 247.42 80.448 247.996 81.024C249.148 78.976 250.108 76.992 250.94 75.2L256.764 77.632C254.844 80.832 252.668 84.288 250.556 87.616L255.036 86.016C256.828 90.048 258.62 95.232 259.132 98.496L253.82 100.608C253.692 99.648 253.436 98.496 253.18 97.28C248.06 97.856 243.132 98.432 238.844 98.944L238.716 98.048H233.276V102.08H257.98V108.672Z" fill="#3B3029" fill-opacity="0.28"/>
<path d="M177.953 65.8H187.169V71.624H177.953V102.856H171.553V43.464H177.953V65.8ZM138.273 87.368H143.201C149.729 87.368 158.049 86.664 165.473 85.512L166.241 91.208C159.137 92.36 150.369 93.192 142.049 93.192H131.809V47.816H160.673V53.704H138.273V87.368ZM238.64 57.096H247.856V62.92H238.64V78.024H232.24V43.464H238.64V57.096ZM226.224 69L226.928 74.312C220.208 75.528 211.824 76.296 203.44 76.296H192.496V58.312H213.872V51.848H192.496V46.28H220.08V63.816H198.704V70.728H204.528C211.248 70.728 219.184 70.088 226.224 69ZM232.24 87.624H199.984V81.736H238.64V103.496H232.24V87.624ZM299.328 43.464V55.88H308.544V61.704H299.328V76.168H292.928V43.464H299.328ZM275.584 46.024H281.728V73.544H252.864V46.024H259.008V54.152H275.584V46.024ZM259.008 59.784V67.976H275.584V59.784H259.008ZM274.112 79.304H286.656C295.232 79.304 300.736 84.296 300.736 91.4C300.736 98.504 295.232 103.496 286.656 103.496H274.112C265.536 103.496 260.032 98.504 260.032 91.4C260.032 84.296 265.536 79.304 274.112 79.304ZM275.136 97.736H285.632C291.456 97.736 294.336 95.112 294.336 91.336C294.336 87.624 291.456 85 285.632 85H275.136C269.312 85 266.432 87.624 266.432 91.336C266.432 95.112 269.312 97.736 275.136 97.736Z" fill="#3B3029"/>
<path d="M13.445 8.68H9.91697C6.17297 8.68 3.65297 7.36 3.65297 4.648C3.65297 1.96 6.17297 0.663999 9.91697 0.663999H13.445C17.189 0.663999 19.685 1.96 19.685 4.648C19.685 7.36 17.189 8.68 13.445 8.68ZM10.349 6.712H13.013C15.773 6.712 17.309 5.968 17.309 4.672C17.309 3.352 15.773 2.656 13.013 2.656H10.349C7.58897 2.656 6.05297 3.352 6.05297 4.672C6.05297 5.992 7.58897 6.712 10.349 6.712ZM22.133 12.712H1.20497V10.648H22.133V12.712ZM19.589 22.696H3.79697V14.944H19.589V22.696ZM6.17297 16.96V20.68H17.189V16.96H6.17297ZM41.7948 5.296H45.2508V7.504H41.7948V12.928H39.3948V0.423999H41.7948V5.296ZM35.8188 6.304V6.688C35.8188 10.312 33.2508 12.064 30.0108 12.064C26.7228 12.064 24.1308 10.312 24.1308 6.688V6.304C24.1308 2.656 26.7228 0.904 30.0108 0.904C33.2508 0.904 35.8188 2.656 35.8188 6.304ZM26.5308 6.328V6.64C26.5308 8.848 28.0188 9.952 30.0108 9.952C31.9548 9.952 33.4428 8.848 33.4428 6.64V6.328C33.4428 4.12 31.9548 3.016 30.0108 3.016C28.0188 3.016 26.5308 4.12 26.5308 6.328ZM39.3948 16.504H27.2988V14.32H41.7948V22.936H39.3948V16.504ZM58.9126 14.2H55.4806C51.4486 14.2 48.8566 11.392 48.8566 7.864C48.8566 4.36 51.4486 1.576 55.4806 1.576H58.9126C62.9446 1.576 65.5126 4.36 65.5126 7.864C65.5126 11.392 62.9446 14.2 58.9126 14.2ZM55.8886 12.04H58.4806C61.3846 12.04 63.1366 10.288 63.1366 7.888C63.1366 5.464 61.3846 3.736 58.4806 3.736H55.8886C53.0086 3.736 51.2566 5.464 51.2566 7.888C51.2566 10.288 53.0086 12.04 55.8886 12.04ZM67.6486 21.016H46.7206V18.832H67.6486V21.016ZM81.1424 14.656V18.832H90.4064V21.04H69.4784V18.832H78.7664V14.656H72.0464V7.216H85.4624V4.072H71.9264V1.912H87.8624V9.328H74.4464V12.544H88.3184V14.656H81.1424ZM115.495 8.776L113.143 8.512C113.527 6.544 113.743 4.456 113.767 3.304H100.807V1.144H116.143V2.368C116.143 4.192 115.927 6.568 115.495 8.776ZM108.847 5.848V10.048H119.047V12.16H98.119V10.048H106.471V5.848H108.847ZM106.087 14.392H111.103C114.703 14.392 116.719 16.24 116.719 18.64C116.719 21.088 114.703 22.936 111.103 22.936H106.087C102.463 22.936 100.447 21.088 100.447 18.64C100.447 16.24 102.463 14.392 106.087 14.392ZM106.615 20.872H110.575C113.143 20.872 114.343 19.984 114.343 18.64C114.343 17.32 113.143 16.432 110.575 16.432H106.615C104.047 16.432 102.847 17.32 102.847 18.64C102.847 19.984 104.047 20.872 106.615 20.872ZM138.709 5.08H142.165V7.264H138.709V12.448H136.309V0.423999H138.709V5.08ZM132.229 1.6V2.824C132.229 7.624 128.389 10.696 122.101 12.64L121.189 10.504C126.421 8.92 129.517 6.424 129.781 3.784H121.693V1.6H132.229ZM138.709 22.696H124.453V13.864H138.709V22.696ZM136.309 15.976H126.829V20.536H136.309V15.976ZM161.467 8.8H164.923V10.984H161.467V22.696H159.067V0.423999H161.467V8.8ZM148.987 0.447999H151.411V3.712H156.715V5.848H143.683V3.712H148.987V0.447999ZM150.235 7.84C153.307 7.84 155.707 9.88 155.707 13.096V14.392C155.707 17.608 153.307 19.672 150.235 19.672C147.139 19.672 144.715 17.608 144.715 14.392V13.096C144.715 9.88 147.139 7.84 150.235 7.84ZM153.307 14.296V13.192C153.307 11.2 151.963 10 150.235 10C148.483 10 147.115 11.2 147.115 13.192V14.296C147.115 16.312 148.483 17.536 150.235 17.536C151.963 17.536 153.307 16.312 153.307 14.296ZM171.576 7.552H184.656V9.76H169.176V0.904H171.576V7.552ZM187.32 14.368H166.392V12.16H187.32V14.368ZM185.112 22.696H169.176V16.24H171.576V20.464H185.112V22.696ZM212.409 8.776L210.057 8.512C210.441 6.544 210.657 4.456 210.681 3.304H197.721V1.144H213.057V2.368C213.057 4.192 212.841 6.568 212.409 8.776ZM205.761 5.848V10.048H215.961V12.16H195.033V10.048H203.385V5.848H205.761ZM203.001 14.392H208.017C211.617 14.392 213.633 16.24 213.633 18.64C213.633 21.088 211.617 22.936 208.017 22.936H203.001C199.377 22.936 197.361 21.088 197.361 18.64C197.361 16.24 199.377 14.392 203.001 14.392ZM203.529 20.872H207.489C210.057 20.872 211.257 19.984 211.257 18.64C211.257 17.32 210.057 16.432 207.489 16.432H203.529C200.961 16.432 199.761 17.32 199.761 18.64C199.761 19.984 200.961 20.872 203.529 20.872ZM235.623 0.423999V6.016H239.079V8.176H235.623V17.104H233.223V0.423999H235.623ZM229.143 1.72V3.088C229.143 8.2 225.351 11.776 219.135 14.128L218.103 12.088C223.479 10.048 226.575 7 226.743 3.904H218.607V1.72H229.143ZM221.367 15.472H223.743V20.512H236.775V22.696H221.367V15.472ZM243.045 25.576H241.077L241.605 18.64H244.029L243.045 25.576Z" fill="#6B4F3B"/>
</svg>
